<?xml version="1.0" standalone="no"?>
<!DOCTYPE svg PUBLIC "-//W3C//DTD SVG 20010904//EN"
 "http://www.w3.org/TR/2001/REC-SVG-20010904/DTD/svg10.dtd">
<svg version="1.0" xmlns="http://www.w3.org/2000/svg"
 width="1600.000000pt" height="900.000000pt" viewBox="0 0 1600.000000 900.000000"
 preserveAspectRatio="xMidYMid meet">

<g transform="translate(0.000000,900.000000) scale(0.100000,-0.100000)"
fill="#000000" stroke="none">
<path d="M0 4500 l0 -4500 2184 0 2185 0 -6 38 c-7 47 -60 162 -78 169 -8 2
-17 14 -20 24 -10 30 -49 67 -88 84 -28 11 -42 28 -67 76 -17 34 -42 76 -55
93 -24 33 -45 143 -29 155 13 9 57 70 86 121 15 25 40 54 57 65 17 11 31 23
31 28 0 4 6 7 14 7 8 0 24 12 35 27 21 26 21 38 -1 96 -24 61 -106 37 -139
-41 -11 -26 -25 -49 -30 -53 -6 -3 -10 -9 -10 -13 3 -22 -2 -37 -22 -68 -13
-19 -27 -46 -30 -60 -4 -13 -16 -37 -28 -52 -21 -26 -22 -26 -38 -9 -9 10 -27
41 -40 68 -12 28 -29 62 -37 77 -26 49 -45 131 -51 218 -3 47 -9 87 -14 88 -5
2 -9 8 -9 13 0 4 7 6 15 3 9 -4 15 0 15 9 0 8 7 20 15 27 12 10 15 38 15 137
l0 124 30 32 c27 29 29 36 24 79 -5 37 -2 56 15 88 25 48 26 89 8 280 -8 74
-13 162 -12 195 1 78 34 185 56 185 21 0 29 -20 29 -76 0 -24 2 -44 4 -44 18
0 136 95 200 160 110 114 164 144 184 103 20 -42 3 -74 -65 -123 -31 -22 -66
-54 -79 -71 -12 -17 -42 -52 -67 -78 -24 -25 -57 -66 -73 -91 -16 -25 -35 -51
-41 -58 -7 -7 -20 -39 -29 -69 -16 -54 -15 -110 1 -199 4 -22 -2 -48 -19 -85
-13 -30 -29 -74 -36 -99 -21 -78 -19 -75 -35 -54 -13 17 -14 17 -15 2 0 -10 5
-18 10 -18 6 0 15 -10 21 -22 8 -19 68 -68 82 -68 2 0 2 12 0 28 -5 36 15 72
56 99 44 29 56 29 86 -3 43 -46 34 -67 -37 -88 -158 -47 -139 -96 38 -96 95 0
148 -14 167 -46 4 -7 33 -25 65 -39 56 -26 58 -26 89 -9 18 9 33 21 33 26 0 4
12 8 28 8 19 0 40 14 71 45 24 25 48 45 52 45 4 0 14 7 23 15 36 37 116 -33
116 -101 0 -30 -34 -74 -57 -74 -7 0 -22 -14 -36 -31 -30 -38 -100 -72 -116
-56 -8 8 -11 8 -11 -1 0 -7 5 -12 10 -12 6 0 10 -7 10 -15 0 -8 4 -15 8 -15 5
0 14 -16 20 -36 17 -55 -8 -125 -51 -146 -41 -20 -78 -14 -136 24 -54 34 -83
35 -111 6 -24 -26 -25 -32 -4 -52 19 -19 24 -19 48 -1 11 8 35 15 53 15 26 0
36 -6 48 -31 21 -40 12 -79 -26 -114 -28 -25 -30 -30 -24 -74 5 -39 2 -54 -16
-85 l-22 -37 22 -23 c11 -12 21 -32 21 -44 0 -12 5 -22 10 -22 6 0 23 -11 38
-25 15 -14 35 -28 46 -31 38 -12 147 -128 176 -189 36 -75 75 -172 84 -207 l6
-28 4414 0 c4307 0 4414 0 4419 19 5 19 57 28 57 10 0 -5 7 -9 16 -9 8 0 12
-4 9 -10 -4 -7 373 -10 1124 -10 l1131 0 -2 658 -3 657 -130 1 c-71 0 -142 5
-156 11 -20 9 -29 9 -38 0 -8 -8 -11 -8 -11 3 0 10 -4 9 -18 -3 -10 -10 -21
-15 -24 -12 -10 11 17 55 32 52 10 -1 14 5 13 21 -2 13 1 21 7 17 14 -9 12 29
-2 43 -10 10 -8 14 9 18 24 7 39 50 28 84 -4 12 -1 27 5 35 7 8 10 20 7 27 -4
9 -6 7 -6 -3 -1 -9 -9 -20 -18 -24 -15 -5 -16 -4 -5 6 16 17 15 29 -3 29 -8 0
-24 6 -35 13 -15 8 -23 9 -28 1 -11 -17 -70 -25 -76 -11 -5 9 -7 9 -12 0 -3
-7 -15 -13 -26 -13 -11 0 -33 -11 -50 -25 -16 -14 -38 -25 -49 -25 -20 0 -23
-4 -33 -53 -4 -15 -11 -25 -16 -22 -5 3 -12 1 -15 -5 -4 -6 -1 -9 7 -8 9 2 13
-8 13 -31 1 -24 -5 -35 -20 -41 -11 -4 -24 -5 -29 -2 -5 3 -7 -7 -4 -21 4 -18
1 -24 -9 -20 -7 3 -13 1 -13 -5 0 -6 5 -12 12 -14 7 -3 9 -11 3 -24 -8 -19 -8
-19 -13 1 -5 22 -30 44 -52 45 -8 0 -35 28 -60 60 -29 39 -55 63 -75 68 -36
10 -70 3 -39 -9 17 -6 16 -8 -9 -14 -35 -9 -98 -41 -92 -47 3 -3 -7 -15 -21
-29 -19 -18 -27 -21 -33 -10 -6 9 -11 10 -15 2 -4 -6 -2 -11 3 -11 35 0 -42
-87 -106 -120 -26 -13 -61 -38 -77 -54 -31 -29 -76 -109 -76 -133 0 -7 -9 -21
-20 -30 -11 -10 -20 -23 -20 -30 0 -18 -59 -72 -86 -79 -13 -3 -28 -3 -33 1
-6 3 -11 1 -11 -5 0 -10 -17 -18 -69 -35 -20 -6 -23 -4 -19 12 8 29 -9 53 -36
53 -16 0 -26 7 -29 21 -4 15 -11 19 -25 15 -11 -4 -55 -8 -99 -10 -44 -2 -89
-8 -101 -15 -26 -14 -97 -14 -123 -1 -39 21 -20 109 40 185 17 22 38 49 46 60
14 19 70 88 165 203 25 31 54 60 65 66 11 6 22 13 25 16 3 3 17 11 33 19 15 8
27 19 27 25 0 6 10 31 22 56 38 81 57 166 45 205 -8 27 -7 41 3 59 17 34 33
38 74 21 48 -20 93 -19 104 3 6 9 13 33 17 52 14 63 126 156 174 143 27 -7 35
-92 11 -113 -19 -18 -30 -53 -37 -123 -12 -111 21 -154 105 -141 41 6 56 16
127 86 44 43 108 106 143 140 44 44 62 69 62 87 0 19 3 22 9 12 7 -11 10 -7
13 14 2 24 16 37 78 74 162 95 240 123 304 107 20 -5 26 -13 26 -34 0 -15 9
-40 20 -57 11 -16 20 -37 20 -45 0 -8 14 -28 30 -43 17 -16 30 -35 30 -43 0
-9 5 -12 10 -9 6 3 14 -4 19 -17 5 -13 26 -32 47 -43 22 -11 44 -25 49 -31 6
-7 36 -15 68 -19 l57 -6 -2 1337 -3 1337 -43 16 c-32 12 -45 23 -54 48 -17 48
-51 68 -85 51 -14 -7 -31 -20 -36 -29 -16 -25 1 -69 33 -87 47 -27 52 -122 6
-122 -6 0 -22 -6 -36 -13 -14 -7 -46 -21 -72 -31 -44 -16 -88 -59 -88 -84 0
-6 19 -21 43 -34 23 -13 42 -31 41 -39 0 -7 -4 -35 -7 -61 -6 -41 -3 -51 18
-76 33 -39 31 -67 -5 -109 -16 -18 -30 -42 -30 -51 0 -10 18 -35 39 -56 41
-40 79 -111 67 -124 -4 -4 -76 -7 -159 -6 l-151 1 -38 43 c-37 41 -44 67 -25
98 5 7 2 14 -7 18 -23 9 -48 53 -41 74 3 10 16 22 28 26 42 12 86 45 81 59 -8
20 -30 26 -129 35 -64 6 -105 16 -142 34 -29 14 -57 26 -62 26 -13 0 -41 41
-35 51 3 5 35 8 73 8 66 -1 68 -1 63 -25 -3 -17 0 -24 11 -24 30 0 29 22 -1
53 -25 26 -29 38 -25 62 3 17 10 35 14 41 6 7 1 18 -12 30 -20 17 -21 26 -15
99 6 74 5 80 -15 96 -20 15 -20 18 -8 45 11 21 21 28 37 26 12 -2 30 1 39 7
16 9 16 10 -4 11 -13 0 -23 5 -23 11 0 7 -10 9 -24 7 -24 -5 -25 -3 -22 51 3
53 5 57 56 102 57 50 55 44 35 144 -7 33 -7 33 112 85 109 48 64 104 -74 92
-47 -4 -63 -2 -63 8 0 22 55 66 106 85 27 11 60 26 74 34 37 22 120 104 120
119 0 26 18 1 30 -44 12 -41 19 -48 66 -72 61 -30 63 -33 78 -127 l12 -70 34
-1 c53 -3 82 -12 104 -33 18 -18 18 -21 2 -36 -19 -19 -21 -56 -4 -73 7 -7 36
-12 65 -12 l53 0 0 870 0 870 -135 0 c-122 0 -232 -13 -245 -29 -11 -13 -78
-31 -118 -31 -31 0 -56 -9 -95 -34 -28 -19 -64 -38 -80 -42 -15 -3 -30 -10
-33 -15 -3 -5 -23 -9 -45 -9 -45 0 -83 -16 -74 -31 4 -5 15 -9 27 -9 16 0 19
-4 14 -25 -5 -21 -1 -27 34 -45 25 -13 40 -27 40 -39 0 -10 7 -24 15 -31 22
-18 17 -108 -7 -121 -22 -12 -35 10 -44 81 l-7 53 -63 -6 c-50 -4 -66 -1 -77
12 -26 29 -30 60 -12 88 17 25 17 27 -1 40 -10 7 -26 13 -36 13 -10 0 -32 14
-50 30 -17 17 -35 30 -39 30 -5 0 -9 6 -9 14 0 16 -96 60 -116 52 -8 -3 -26 0
-39 6 -21 9 -39 7 -103 -15 -42 -14 -96 -28 -119 -30 -39 -5 -42 -3 -45 22 -3
22 -7 26 -33 24 -16 -1 -42 -11 -57 -23 -29 -22 -48 -26 -48 -10 0 5 11 12 25
16 15 4 25 13 25 24 0 23 -67 30 -160 18 -89 -12 -89 -12 -143 3 -44 12 -50
12 -58 -4 -6 -9 -17 -17 -24 -17 -8 0 -15 -4 -15 -9 0 -5 19 -7 41 -4 33 5 41
3 37 -8 -5 -16 -95 -67 -120 -68 -19 -1 -25 24 -8 34 28 17 3 21 -47 8 -107
-28 -408 0 -508 48 -77 36 -119 38 -173 10 -23 -12 -46 -20 -51 -17 -14 9
-212 -31 -229 -47 -10 -9 -27 -13 -43 -10 -25 5 -78 -10 -149 -40 -19 -8 -64
-23 -100 -33 -36 -9 -83 -26 -104 -36 l-40 -18 -55 31 c-50 29 -60 31 -116 25
-49 -5 -64 -11 -83 -33 -16 -20 -21 -36 -18 -55 4 -21 -1 -32 -24 -52 -17 -13
-38 -27 -47 -29 -142 -38 -183 -52 -179 -64 8 -19 -12 -26 -22 -7 -8 15 -22
13 -143 -20 -74 -21 -176 -51 -227 -68 l-94 -30 -29 21 c-15 11 -32 21 -38 21
-5 0 -12 7 -15 16 -6 16 -16 15 -93 -13 -43 -16 -59 -42 -54 -90 2 -17 -6 -27
-33 -40 -26 -12 -36 -23 -36 -40 0 -13 -5 -23 -11 -23 -6 0 -8 8 -4 20 6 18 1
17 -62 -9 -149 -63 -183 -81 -183 -97 0 -13 -3 -14 -13 -5 -11 8 -38 -4 -118
-55 -189 -121 -308 -166 -347 -132 -15 14 -26 14 -99 -1 -95 -19 -113 -31 -92
-58 11 -15 10 -15 -9 1 -23 20 -23 20 -45 -4 -12 -12 -17 -20 -10 -16 10 5 50
-47 63 -84 7 -19 51 -91 117 -190 28 -43 70 -109 93 -146 23 -38 51 -76 63
-86 18 -14 19 -19 8 -32 -26 -31 -46 -19 -42 24 1 8 -25 58 -58 110 -33 52
-79 127 -102 165 -24 39 -52 81 -65 95 -12 14 -38 51 -59 83 -39 63 -55 71
-31 16 52 -122 66 -158 66 -170 -1 -26 -28 21 -62 107 -19 49 -38 84 -46 84
-10 0 -12 -7 -9 -21 4 -16 3 -18 -9 -8 -11 9 -21 9 -44 -1 -16 -7 -30 -17 -30
-22 0 -25 122 -290 148 -321 11 -13 13 -20 4 -29 -17 -17 -44 -2 -37 21 4 13
-11 57 -40 119 -25 54 -45 102 -45 106 0 5 -20 38 -57 95 -1 2 -36 -18 -78
-43 -42 -25 -80 -46 -85 -46 -16 0 -11 -14 11 -33 13 -12 19 -27 17 -45 -2
-22 -9 -28 -35 -30 -19 -2 -39 4 -52 15 -29 25 -26 33 13 33 23 0 38 -7 49
-22 l16 -23 0 26 c1 14 -7 34 -18 43 -16 15 -27 15 -87 6 -38 -6 -70 -13 -73
-15 -6 -7 29 -56 45 -62 8 -3 14 -9 14 -14 0 -20 -60 23 -66 46 -8 34 -23 31
-65 -13 -45 -46 -50 -60 -33 -94 13 -26 13 -26 -14 -18 -21 6 -41 0 -92 -28
-95 -51 -93 -49 -65 -86 14 -18 25 -37 25 -42 0 -5 -11 8 -25 29 -14 20 -28
37 -31 37 -7 0 -64 -30 -64 -33 0 -2 11 -18 25 -37 13 -18 31 -56 40 -84 18
-63 105 -158 145 -160 28 -1 35 -29 8 -34 -10 -2 -46 26 -92 73 -64 64 -76 82
-81 119 -7 47 -38 106 -55 106 -19 0 -70 -30 -70 -41 0 -6 5 -20 11 -32 10
-21 9 -21 -5 -3 -8 10 -17 23 -18 28 -2 6 -20 5 -46 -3 -29 -8 -49 -22 -62
-44 -11 -18 -20 -35 -20 -39 0 -9 106 -56 125 -56 17 0 20 -25 6 -35 -6 -3
-13 1 -18 9 -8 14 -121 72 -127 65 -2 -2 37 -43 86 -90 49 -47 91 -82 95 -76
3 6 10 24 14 41 l7 31 1 -30 c1 -17 7 -37 14 -44 10 -10 9 -14 -5 -22 -14 -8
-2 -24 79 -102 52 -50 104 -95 114 -99 23 -9 24 -21 4 -38 -11 -10 -16 -6 -28
22 -9 20 -86 101 -201 208 -103 96 -190 176 -194 177 -4 1 -20 -14 -36 -33
-22 -26 -26 -38 -17 -47 15 -15 14 -64 -1 -74 -20 -12 -38 -51 -32 -66 3 -8
-2 -17 -11 -21 -25 -9 -35 2 -26 28 7 17 5 25 -10 34 -22 14 -25 38 -5 45 8 3
31 3 50 0 33 -5 36 -4 36 20 0 14 -4 28 -9 32 -6 3 -47 -15 -92 -40 -45 -25
-87 -45 -95 -45 -7 0 -27 -20 -44 -45 -29 -42 -30 -47 -19 -87 6 -24 14 -50
17 -58 3 -8 7 -28 9 -45 1 -16 7 -39 12 -50 5 -11 11 -25 13 -31 4 -15 124
-109 166 -131 35 -18 40 -45 9 -51 -10 -2 -20 5 -26 20 -5 13 -36 45 -69 71
-54 42 -62 46 -71 30 -9 -17 -11 -16 -47 2 -21 11 -56 30 -79 41 -39 21 -84
70 -98 107 -9 23 -34 22 -42 -2 -13 -43 23 -127 63 -142 23 -10 25 -12 11 -22
-15 -9 -13 -15 11 -51 16 -23 45 -68 67 -100 21 -33 43 -65 48 -73 7 -10 6
-16 -5 -23 -19 -12 -30 -4 -30 22 0 27 -79 160 -91 153 -11 -7 -1 -35 24 -62
20 -22 16 -43 -9 -43 -9 0 -14 10 -14 29 0 15 -10 40 -21 55 -12 15 -30 50
-40 77 -31 82 -65 128 -89 122 -22 -6 -25 -24 -10 -53 6 -11 17 -17 25 -14 11
5 15 -1 16 -22 l1 -29 8 25 c8 25 8 25 9 2 1 -13 12 -43 26 -66 l25 -43 -25
-11 c-23 -10 -27 -9 -34 11 -10 24 -40 55 -83 88 -26 19 -38 49 -20 49 4 0 25
-18 46 -41 20 -23 40 -39 43 -36 8 9 -70 98 -82 92 -5 -3 -18 -8 -27 -11 -10
-4 -18 -10 -18 -15 0 -5 -6 -9 -14 -9 -8 0 -28 -11 -43 -24 l-28 -24 34 -69
c41 -81 124 -233 158 -286 24 -38 23 -57 -3 -57 -8 0 -14 10 -14 26 0 14 -16
56 -36 92 -74 138 -119 212 -128 212 -5 0 -6 -22 -3 -50 5 -43 3 -51 -14 -60
-11 -6 -24 -8 -29 -5 -15 9 -12 41 5 55 8 7 15 21 15 31 0 14 -7 19 -30 19
-20 0 -30 5 -30 15 0 8 -4 15 -10 15 -5 0 -10 -26 -10 -57 0 -58 17 -123 33
-123 4 0 22 -30 39 -67 17 -38 33 -62 35 -55 6 15 43 16 43 2 0 -18 -47 -63
-59 -56 -6 4 -11 18 -11 30 0 29 -25 51 -59 51 -23 0 -26 4 -23 30 5 59 -20
105 -65 119 -27 9 -36 -5 -23 -39 5 -14 12 -50 15 -78 3 -29 7 -59 8 -67 1 -8
-2 -17 -8 -20 -6 -3 -11 10 -12 30 -2 55 -35 167 -43 146 -3 -9 -10 -18 -15
-19 -6 -1 -10 -11 -11 -22 -2 -40 -4 -45 -20 -45 -12 0 -14 -7 -9 -30 9 -43
83 -229 105 -267 16 -27 17 -38 9 -63 -20 -56 -43 -32 -41 43 1 48 -14 95 -64
205 -13 29 -24 57 -24 62 0 12 -32 28 -45 24 -5 -2 -10 -33 -9 -69 0 -63 0
-64 -18 -48 -11 10 -17 25 -14 36 2 10 -2 30 -10 45 -13 25 -12 28 6 36 12 5
20 19 20 32 0 13 5 26 11 29 6 4 -1 13 -16 21 -34 18 -30 19 -55 -17 -21 -28
-21 -31 -5 -49 21 -24 16 -55 -10 -56 -29 -2 -56 -15 -50 -24 9 -15 -7 -40
-26 -40 -12 0 -19 7 -19 20 0 11 -2 20 -5 20 -9 0 -78 -38 -96 -52 -23 -19
-49 -93 -49 -138 0 -37 2 -40 26 -40 15 0 42 10 61 21 29 18 37 19 44 8 5 -8
9 -20 9 -26 0 -16 32 -17 47 -2 8 8 13 8 18 0 7 -12 -30 -71 -45 -71 -4 0 -11
-16 -15 -36 -10 -57 -25 -81 -61 -100 -18 -10 -32 -20 -31 -23 1 -3 -4 -16
-11 -28 -9 -17 -9 -28 0 -48 13 -30 1 -49 -25 -39 -10 4 -17 17 -17 34 0 31
-16 48 -31 33 -5 -5 -13 -27 -16 -49 -3 -21 -9 -41 -13 -44 -13 -9 -113 -94
-127 -109 -8 -7 -12 -20 -9 -28 3 -8 6 -23 6 -34 0 -24 17 -25 24 -1 9 27 59
45 98 33 29 -8 30 -9 8 -11 -25 -2 -25 -2 3 -10 30 -9 60 -3 52 9 -2 4 10 16
28 26 18 11 32 17 33 15 0 -3 9 1 18 9 14 12 19 12 25 2 12 -19 91 -27 102
-10 6 11 9 8 9 -8 0 -40 17 -25 23 19 4 32 2 45 -9 51 -13 8 -14 11 -1 25 25
30 28 51 7 62 -34 18 -37 71 -4 84 8 3 26 -1 39 -10 19 -12 44 -15 102 -13
l78 4 -3 -30 c-2 -16 -7 -31 -12 -33 -10 -4 -1 -113 11 -128 12 -15 -79 -46
-117 -38 -21 4 -34 1 -43 -10 -8 -9 -9 -16 -4 -16 19 0 30 -64 19 -105 -13
-45 -45 -58 -74 -32 -34 31 -68 31 -109 1 -21 -16 -42 -35 -46 -42 -6 -10 -15
-6 -37 15 -62 59 -75 67 -115 68 -22 1 -52 -2 -67 -6 -16 -4 -28 -4 -28 2 0 5
-7 9 -15 9 -9 0 -15 -9 -15 -25 0 -30 33 -47 67 -34 25 9 27 7 37 -34 5 -20 1
-36 -14 -58 -13 -17 -19 -37 -15 -48 5 -17 2 -18 -37 -11 -24 5 -45 7 -46 5
-6 -5 40 -139 53 -155 7 -8 16 -24 20 -35 7 -16 10 -11 15 25 15 98 70 163
107 127 16 -17 22 -125 7 -136 -5 -3 -20 -28 -33 -55 -21 -44 -25 -47 -32 -28
-4 11 -16 25 -27 31 -17 9 -18 7 -14 -14 2 -14 -4 -38 -16 -57 -12 -21 -17
-39 -12 -48 5 -8 25 -50 45 -92 20 -43 41 -80 46 -84 5 -3 9 -16 9 -30 0 -18
-5 -24 -21 -24 -27 0 -48 27 -49 61 0 15 -7 32 -15 39 -8 7 -15 17 -15 23 0 6
-20 29 -44 52 -39 35 -44 45 -44 84 -1 59 -17 94 -52 114 -16 10 -37 34 -46
53 -10 20 -27 40 -39 46 -13 6 -27 20 -33 33 -6 13 -26 34 -44 48 -31 24 -42
26 -126 25 -76 -1 -96 -4 -114 -20 -19 -16 -31 -18 -73 -13 -27 4 -61 14 -74
22 -29 19 -78 11 -143 -23 -26 -13 -60 -24 -75 -24 -33 0 -113 -22 -165 -44
-37 -16 -98 -22 -98 -10 0 12 34 33 53 34 10 0 43 9 75 21 74 27 108 36 214
58 49 10 98 25 111 34 16 10 38 13 70 10 41 -5 47 -3 41 11 -4 12 0 16 15 16
12 0 21 5 21 10 0 7 6 7 20 0 11 -6 20 -18 20 -26 0 -14 8 -15 47 -9 79 12
116 28 139 62 12 18 25 29 29 25 4 -4 1 5 -6 21 -16 35 -42 35 -89 -3 -47 -37
-55 -37 -58 -1 -2 25 2 29 32 35 19 4 42 17 52 31 10 14 26 25 34 25 8 0 24
11 34 25 10 13 22 22 27 19 5 -3 9 3 9 13 0 11 7 28 15 39 13 17 14 17 15 2 0
-10 6 -18 13 -18 9 0 9 -2 0 -8 -9 -6 -7 -11 7 -19 21 -14 33 -4 43 35 3 15 1
22 -9 22 -21 0 -17 17 5 23 15 4 20 18 26 78 3 41 9 82 12 93 3 12 1 16 -6 12
-6 -4 -12 -28 -12 -54 -1 -26 -4 -37 -6 -24 -8 42 -23 22 -23 -32 0 -50 -2
-54 -27 -59 -34 -6 -103 20 -103 39 0 8 10 14 25 14 44 0 75 21 75 50 0 68
-12 90 -64 125 -93 61 -108 77 -101 108 5 19 14 27 29 27 32 0 49 20 29 35
-13 9 -13 16 -4 33 6 12 16 22 21 22 6 0 10 5 10 10 0 6 -4 10 -9 10 -6 0 -22
11 -37 25 -15 14 -37 25 -50 25 -24 0 -44 37 -26 49 6 4 15 19 21 34 6 16 18
27 30 27 10 0 23 6 29 13 12 16 21 77 11 77 -16 0 -152 -123 -157 -142 -7 -27
-30 -22 -47 12 l-15 30 27 -5 c22 -4 33 1 52 25 l23 31 -28 -7 c-84 -18 -87
-18 -79 5 5 18 2 21 -24 21 -32 0 -71 -29 -71 -54 0 -7 -11 -25 -25 -40 -20
-21 -29 -25 -43 -17 -33 18 -86 2 -104 -30 -17 -29 -60 -40 -73 -19 -11 18
-80 11 -105 -10 -30 -26 -39 -18 -33 30 4 29 2 41 -9 45 -10 4 -15 22 -17 55
-1 39 3 51 20 63 13 9 16 17 10 22 -6 3 -11 16 -11 28 0 14 -25 46 -65 86 -42
42 -65 72 -65 87 0 37 17 37 58 -1 22 -19 43 -35 48 -35 5 0 30 -22 56 -49 44
-44 53 -49 108 -55 36 -4 67 -3 79 4 11 5 42 43 69 82 36 54 65 84 117 120 61
42 70 51 67 75 -2 23 4 32 28 47 l32 18 -24 25 c-21 24 -91 73 -103 73 -3 0
-5 -9 -5 -20 0 -13 -7 -20 -20 -20 -16 0 -20 7 -20 31 l0 32 -23 -34 c-13 -19
-20 -35 -15 -37 4 -2 8 -10 8 -18 0 -7 15 -21 32 -30 30 -16 31 -18 13 -25
-11 -4 -30 -8 -42 -8 -15 -1 -23 -8 -25 -23 -2 -15 -10 -23 -23 -23 -16 0 -20
7 -22 40 0 22 3 70 9 106 15 96 3 111 -104 130 -46 7 -87 12 -92 11 -6 -2 -19
1 -30 6 -12 5 -43 15 -71 21 -51 12 -70 21 -139 60 -22 12 -48 20 -58 18 -10
-3 -16 -1 -12 4 3 5 -1 9 -9 9 -8 0 -17 7 -21 15 -3 8 -18 21 -33 27 -15 7
-45 26 -65 43 -20 17 -50 38 -65 45 -15 8 -57 39 -92 68 -38 32 -69 51 -78 48
-9 -4 -17 1 -20 14 -3 11 -10 20 -15 20 -5 0 -6 6 -2 13 6 9 4 9 -8 -1 -14
-11 -20 -9 -40 10 -29 29 -87 27 -95 -3 -3 -10 -9 -19 -14 -19 -5 0 -9 -9 -9
-19 0 -28 -17 -35 -29 -12 -15 27 -14 58 1 64 8 4 7 6 -3 6 -9 1 -22 -6 -29
-14 -18 -22 -30 -18 -30 9 0 13 -7 29 -15 36 -8 7 -15 9 -15 4 0 -4 -5 -3 -12
4 -14 14 -62 16 -53 2 9 -15 -27 -12 -50 4 -22 14 -99 38 -185 57 -30 7 -57
15 -60 19 -9 13 -148 27 -166 17 -9 -5 -34 -7 -55 -4 -22 3 -41 2 -44 -3 -4
-7 -51 1 -128 23 -49 14 -66 41 -36 58 17 9 19 13 8 20 -10 6 -18 1 -27 -17
-21 -40 -47 -61 -73 -58 -13 1 -27 3 -31 3 -5 1 -8 10 -8 21 0 15 9 22 31 27
19 4 34 14 39 29 5 13 23 30 40 39 33 17 38 36 15 55 -8 7 -15 18 -15 25 0 7
7 18 15 25 24 20 48 -6 41 -43 -3 -17 -2 -35 3 -41 13 -17 19 -66 9 -72 -5 -4
1 -11 13 -18 13 -6 29 -22 35 -35 8 -15 14 -19 19 -11 4 7 18 10 31 7 14 -2
27 0 30 4 9 15 175 10 228 -6 27 -8 84 -15 126 -15 68 0 80 3 104 25 31 29 62
32 94 9 15 -10 27 -13 35 -6 14 11 67 26 84 23 40 -6 25 130 -25 223 -22 39
-42 83 -46 98 -9 40 -62 127 -101 168 -19 19 -41 51 -49 71 -12 28 -23 38 -54
47 -22 7 -42 20 -46 30 -3 9 -14 43 -25 75 l-19 59 28 9 c16 6 31 20 34 34 10
40 37 40 73 -2 18 -21 37 -53 44 -71 6 -18 20 -37 31 -41 21 -8 67 -124 68
-173 0 -28 44 -88 64 -88 19 0 46 -34 46 -58 0 -12 5 -22 10 -22 6 0 10 -11
10 -24 0 -24 16 -42 54 -61 11 -6 29 -25 38 -44 9 -19 34 -49 55 -67 21 -19
45 -41 53 -50 8 -8 37 -39 64 -67 59 -62 137 -127 151 -127 5 0 11 17 12 37 1
21 8 39 15 42 7 2 29 21 49 42 39 42 62 48 96 24 15 -10 19 -21 16 -36 -4 -14
0 -25 11 -31 9 -5 16 -15 16 -23 0 -26 38 -26 89 0 27 15 74 29 104 32 47 5
56 3 75 -18 24 -25 27 -35 12 -44 -5 -3 -14 -33 -21 -66 -8 -39 -21 -70 -36
-85 -12 -13 -23 -27 -23 -33 0 -5 -9 -13 -20 -16 -37 -12 -20 -24 58 -40 118
-26 151 -35 157 -44 9 -16 80 -47 97 -43 24 5 33 48 19 88 -12 33 -6 84 10 84
5 0 9 -8 10 -17 0 -10 6 3 13 30 16 59 22 65 43 44 14 -14 16 -35 14 -122 -3
-104 -2 -105 23 -116 36 -17 56 2 56 55 0 53 25 147 42 157 16 11 20 11 35 1
9 -6 4 -23 -18 -67 -22 -44 -28 -68 -25 -98 6 -48 12 -55 36 -39 17 10 20 10
20 -3 0 -9 12 -20 28 -25 15 -6 40 -17 55 -26 36 -20 50 -14 71 30 12 26 22
35 37 33 30 -3 48 27 32 53 -7 10 -10 26 -7 34 3 9 -3 31 -15 49 -15 25 -19
43 -14 70 3 20 10 37 14 37 22 0 6 19 -21 25 -46 10 -70 -2 -70 -34 0 -37 -8
-43 -36 -24 -31 20 -30 36 3 63 19 14 24 23 16 26 -7 3 -13 21 -13 39 0 33 -2
34 -47 41 -35 5 -54 3 -75 -9 -33 -19 -62 -12 -92 22 -11 11 -29 21 -41 21
-33 0 -44 37 -38 123 4 50 2 76 -6 81 -15 10 -14 48 2 71 10 12 16 14 21 7 4
-7 18 -12 32 -12 14 0 33 -7 41 -16 11 -10 26 -14 44 -10 30 6 30 6 53 -96 4
-16 15 -30 29 -34 12 -4 25 -11 28 -17 4 -6 19 -1 38 12 29 21 36 22 98 12 50
-8 73 -17 95 -38 22 -21 37 -27 61 -24 46 4 60 18 43 43 -23 32 5 81 35 62 5
-3 9 4 9 16 0 25 -42 70 -66 70 -10 0 -14 5 -11 14 7 19 -22 29 -57 20 -19 -4
-33 0 -57 20 -17 14 -36 26 -44 26 -7 0 -32 11 -56 24 -24 14 -70 32 -102 41
-59 17 -76 33 -61 57 5 7 8 21 9 31 0 24 77 52 114 42 14 -4 73 -11 131 -15
58 -5 124 -10 146 -12 29 -3 41 -1 37 7 -2 7 11 36 29 66 36 59 68 76 68 36 0
-13 9 -32 20 -42 23 -20 26 -55 8 -74 -11 -10 -6 -18 20 -41 32 -27 34 -31 33
-94 0 -36 -5 -85 -11 -107 -9 -33 -9 -44 3 -57 8 -10 18 -31 22 -49 3 -17 13
-37 22 -44 26 -22 35 -60 22 -91 -14 -35 -8 -42 44 -47 4 -1 7 -12 7 -26 0
-14 5 -25 10 -25 10 0 11 2 15 36 1 11 7 29 12 39 8 13 7 28 -3 51 -18 43 -18
50 4 58 9 3 23 9 30 12 7 4 12 -2 12 -15 0 -12 6 -21 13 -21 30 0 36 -22 14
-51 -16 -23 -18 -32 -9 -41 7 -7 12 -22 12 -35 0 -26 3 -27 29 -11 15 9 23 7
44 -8 15 -10 27 -24 27 -31 0 -6 10 -13 23 -15 14 -2 21 -9 21 -21 -1 -9 2
-17 7 -17 5 0 9 6 9 13 0 7 9 32 20 55 27 56 26 68 -5 48 -30 -20 -49 -20 -65
-1 -9 11 -10 18 -1 29 6 7 9 26 6 42 -8 42 6 59 41 49 16 -5 32 -8 35 -7 4 1
5 -8 2 -18 -7 -25 11 -26 34 -2 25 26 50 33 57 17 3 -8 14 -12 26 -10 11 2 20
1 20 -3 -1 -12 -27 -42 -36 -42 -5 0 -16 -4 -23 -9 -12 -8 -11 -13 10 -30 l24
-20 -27 -23 c-24 -21 -88 -124 -88 -142 0 -4 9 -5 19 -1 13 4 24 -1 33 -14 17
-23 64 -18 78 10 6 10 19 21 31 24 15 5 19 13 16 27 -4 16 -2 19 12 15 15 -3
17 0 13 16 -4 16 -2 19 12 14 10 -4 20 -7 23 -7 3 0 0 -6 -6 -13 -8 -10 -7
-14 4 -14 21 0 18 34 -5 57 -11 11 -20 27 -20 36 0 8 -3 13 -8 10 -4 -2 -16 2
-27 10 -17 13 -17 14 -1 14 21 0 17 18 -23 99 -17 35 -27 48 -29 37 -4 -17 -5
-17 -23 0 -19 17 -28 70 -9 59 6 -3 6 5 -1 22 -12 36 -43 57 -67 45 -29 -15
-120 -24 -127 -12 -3 6 -10 8 -15 5 -5 -3 -11 -1 -15 5 -3 5 -1 10 6 10 7 0 2
8 -9 19 l-22 18 37 37 c20 20 40 36 44 36 4 0 10 11 13 25 4 14 11 25 17 25
14 0 109 83 109 95 0 23 75 69 122 75 53 7 78 -2 78 -29 0 -10 7 -24 15 -31
19 -16 20 -31 1 -24 -19 7 -30 -14 -16 -31 15 -18 -19 -64 -70 -93 -45 -27
-100 -77 -100 -93 0 -7 10 -34 22 -60 22 -47 38 -62 38 -36 0 13 54 47 73 46
17 0 77 -78 77 -98 0 -20 -44 -73 -54 -64 -3 3 -6 1 -6 -5 0 -7 -9 -12 -20
-12 -22 0 -26 -20 -9 -37 8 -8 18 -8 35 -1 31 15 37 8 39 -47 1 -32 -3 -44
-11 -41 -9 3 -9 -4 -1 -30 11 -37 44 -47 67 -19 12 15 4 21 -23 16 -5 -1 -6 3
-2 9 3 5 1 10 -4 10 -6 0 -11 5 -11 10 0 16 22 12 35 -7 19 -25 35 -6 35 43 0
39 -4 47 -32 64 -18 11 -41 20 -50 20 -27 0 -22 25 7 38 33 15 35 15 35 -1 0
-7 7 -22 15 -33 14 -18 15 -17 9 10 -4 18 -2 31 6 36 16 10 -69 128 -106 148
-14 7 -21 18 -18 27 13 34 41 11 99 -82 33 -52 74 -112 92 -132 27 -30 34 -34
43 -21 5 8 10 26 11 40 1 23 2 23 15 -8 l14 -33 66 67 66 68 -4 65 c-2 36 -8
74 -12 84 -7 14 -3 17 19 17 24 0 26 -3 20 -22 -8 -24 -8 -119 0 -127 3 -2 13
3 23 12 10 10 23 17 29 17 14 0 24 -26 17 -45 -5 -11 -10 -12 -26 -4 -33 18
-46 4 -53 -56 -8 -61 -3 -74 20 -55 11 9 18 10 28 1 8 -6 18 -7 23 -3 4 4 3 0
-3 -8 -7 -9 -8 -21 -3 -29 4 -8 6 -21 3 -29 -9 -23 37 19 47 43 7 16 9 17 9 3
1 -9 6 -29 12 -45 10 -26 12 -27 19 -8 8 19 9 19 9 -2 1 -25 35 -33 44 -10 4
10 6 10 6 0 2 -21 21 -15 21 6 0 11 4 22 9 25 5 4 7 -3 4 -14 -6 -21 20 -29
32 -10 4 6 11 8 16 5 5 -4 22 7 39 23 24 25 30 39 33 88 l3 59 2 -57 c1 -32 6
-58 10 -58 13 0 42 35 43 51 0 8 6 1 13 -14 l12 -28 27 21 c25 20 26 23 13 48
-7 15 -22 50 -34 77 -56 139 -155 342 -179 367 -25 26 -26 29 -10 45 20 20 28
14 33 -28 2 -18 8 -37 13 -43 4 -6 25 -49 46 -96 59 -135 156 -330 164 -330
15 0 137 53 178 77 27 16 70 28 115 34 39 5 75 14 79 20 4 6 11 9 16 6 6 -4
22 6 37 22 23 24 25 31 16 56 -14 38 -6 43 10 5 7 -16 17 -30 22 -30 18 0 20
31 3 50 -10 11 -15 20 -10 20 4 0 14 -8 21 -17 12 -17 13 -17 27 1 11 15 29
19 98 21 91 2 114 8 123 32 9 21 -4 38 -16 22 -8 -11 -9 -11 -5 1 2 8 1 22 -3
30 -15 30 -20 70 -10 70 5 0 10 -10 10 -22 0 -38 37 -88 64 -88 14 0 28 5 31
10 3 6 17 10 30 10 24 0 65 42 65 66 0 8 -9 22 -21 32 -31 25 -49 67 -47 104
1 18 -2 61 -6 94 -8 64 -2 79 28 68 12 -5 14 -12 9 -28 -12 -34 -4 -119 14
-138 12 -14 13 -21 4 -32 -10 -11 -9 -19 1 -35 7 -12 18 -21 25 -21 7 0 13
-11 13 -25 0 -28 0 -28 34 -15 15 5 33 26 43 47 15 31 32 45 88 73 63 31 70
38 73 67 4 45 28 62 258 185 206 111 414 207 449 208 11 1 38 7 59 15 34 12
42 12 62 -1 20 -14 25 -14 46 0 13 8 61 26 108 39 78 23 85 27 92 55 13 50 88
97 263 165 186 72 317 110 400 114 l80 5 35 -34 c34 -33 36 -34 98 -28 71 7
101 31 102 83 0 40 26 84 58 101 38 20 130 42 232 56 98 13 115 18 230 60 69
25 94 30 134 25 52 -6 126 -39 126 -55 0 -21 41 -50 70 -50 17 0 55 16 92 41
l63 41 195 -7 c184 -6 261 -17 313 -46 16 -9 59 -4 82 10 5 3 22 4 37 2 27 -2
128 46 128 62 0 11 -48 9 -55 -3 -3 -5 -26 -10 -51 -10 -31 0 -44 -4 -44 -14
0 -13 -28 -26 -57 -26 -19 0 -16 12 11 41 17 18 42 30 84 38 45 9 62 17 67 31
4 11 4 24 0 30 -3 5 1 20 10 33 16 26 12 37 -16 37 -18 0 -21 7 -33 78 -10 57
-59 107 -147 150 -45 22 -89 38 -99 35 -9 -3 -27 -22 -39 -43 -26 -46 -62 -57
-144 -45 -29 4 -75 10 -103 14 -97 13 -110 51 -33 94 50 28 51 29 45 65 -4 20
-9 57 -13 82 -3 25 -10 48 -17 52 -8 6 -7 15 4 34 24 43 40 42 40 -4 0 -23 6
-45 15 -52 8 -7 15 -18 15 -25 0 -14 42 -35 69 -35 34 0 71 39 71 75 0 30 3
33 35 39 38 7 60 -1 89 -33 11 -12 37 -24 58 -27 23 -4 38 -12 38 -20 0 -16
16 -19 25 -5 3 5 20 13 38 17 17 4 27 9 20 11 -8 3 -2 18 17 45 27 37 29 44
23 106 -3 37 -12 77 -19 90 -13 19 -12 26 1 52 14 27 20 30 64 30 51 0 101 28
101 56 0 8 7 14 15 14 8 0 26 24 40 53 13 28 36 63 50 76 14 13 25 27 25 32 0
5 5 9 10 9 15 0 12 -26 -4 -39 -8 -7 -17 -24 -21 -39 -3 -14 -15 -46 -26 -70
-11 -24 -20 -51 -20 -60 3 -61 21 -143 37 -169 8 -12 16 -48 20 -80 3 -32 13
-75 21 -95 13 -31 14 -47 5 -92 -7 -35 -8 -66 -2 -86 16 -54 26 -60 90 -53 45
4 62 2 74 -9 11 -12 26 -13 63 -8 26 4 49 7 51 6 1 -2 -26 -31 -60 -65 -49
-48 -67 -61 -83 -56 -11 4 -38 6 -60 5 -32 -1 -46 -8 -72 -37 -27 -30 -30 -38
-21 -59 9 -19 19 -24 50 -24 26 0 38 -4 36 -12 -3 -20 12 -58 24 -58 9 0 165
75 223 107 27 15 84 39 115 48 14 4 59 25 100 46 41 22 104 46 140 55 36 9 89
27 118 41 69 33 90 19 44 -28 -18 -18 -32 -36 -32 -40 0 -13 -71 -78 -92 -85
-29 -9 -21 -65 12 -81 29 -15 28 -37 -3 -71 -33 -36 -92 -63 -194 -88 -51 -12
-103 -30 -115 -39 -22 -16 -21 -16 25 -9 40 5 50 3 62 -12 24 -31 17 -42 -34
-61 -27 -9 -47 -21 -44 -26 3 -5 11 -6 18 -3 8 3 27 -1 42 -9 33 -16 112 -31
238 -46 50 -5 124 -16 165 -24 264 -49 372 -57 520 -38 59 7 78 6 88 -4 7 -7
21 -13 30 -13 9 0 26 -7 36 -15 11 -8 23 -15 28 -15 4 0 8 515 8 1145 l0 1145
-8000 0 -8000 0 0 -4500z m15192 4375 c6 -29 -7 -43 -16 -19 -9 23 -7 44 3 44
5 0 11 -11 13 -25z m-73 -42 c0 -21 -3 -33 -5 -27 -3 7 -18 9 -44 4 -39 -7
-40 -6 -40 21 0 25 4 28 38 32 20 2 40 4 45 5 4 1 7 -15 6 -35z m49 15 c-2 -6
-10 -14 -16 -16 -7 -2 -10 2 -6 12 7 18 28 22 22 4z m-14163 -53 c1 -45 -8
-58 -19 -30 -6 17 3 75 13 75 3 0 6 -20 6 -45z m-29 -89 c0 -14 -6 -22 -13
-19 -7 3 -13 7 -13 9 0 4 23 33 26 34 1 0 1 -11 0 -24z m13504 -367 c0 -11 -4
-17 -10 -14 -5 3 -10 13 -10 21 0 8 5 14 10 14 6 0 10 -9 10 -21z m-8818 -892
c-13 -12 -27 -17 -38 -13 -15 6 -13 11 17 42 32 33 34 34 37 13 2 -12 -5 -30
-16 -42z m-342 34 c0 -10 -8 -21 -17 -25 -10 -3 -24 -9 -30 -12 -26 -12 -12
26 15 40 34 19 32 19 32 -3z m200 -96 c-7 -9 -15 -13 -17 -11 -7 7 7 26 19 26
6 0 6 -6 -2 -15z m-150 -59 c0 -3 -4 -8 -10 -11 -5 -3 -10 -1 -10 4 0 6 5 11
10 11 6 0 10 -2 10 -4z m9330 -69 c0 -14 -58 -39 -71 -31 -16 9 -9 24 10 24
11 0 23 5 26 10 9 14 35 12 35 -3z m-9450 -88 c0 -12 -29 -24 -37 -16 -3 4 -3
13 0 21 6 16 37 11 37 -5z m8245 -78 c8 -14 -35 -41 -65 -41 l-25 1 28 24 c29
26 52 32 62 16z m-12961 -227 c9 -22 -3 -32 -14 -14 -12 19 -12 30 -1 30 5 0
12 -7 15 -16z m-24 -14 c0 -5 -4 -10 -10 -10 -5 0 -10 5 -10 10 0 6 5 10 10
10 6 0 10 -4 10 -10z m65 -42 c6 -6 5 -12 -5 -18 -12 -8 -10 -10 8 -10 19 0
22 -4 17 -20 -4 -11 -2 -20 4 -20 12 0 10 -27 -2 -47 -5 -8 -4 -13 2 -13 13 0
15 -37 2 -44 -9 -6 -8 -96 1 -112 3 -5 2 -36 -2 -69 -4 -33 -3 -73 1 -88 6
-21 4 -30 -7 -34 -9 -3 -14 -20 -14 -47 0 -29 -6 -47 -20 -59 -13 -11 -20 -29
-20 -52 0 -23 -6 -38 -15 -42 -9 -3 -22 -18 -30 -34 -10 -18 -24 -29 -42 -31
-18 -2 -27 -8 -26 -18 2 -14 -85 -65 -95 -56 -9 9 10 26 30 26 14 0 18 5 14
16 -3 9 -6 22 -6 30 0 21 -17 17 -23 -6 -3 -11 -13 -20 -22 -20 -14 0 -16 6
-10 36 4 26 2 41 -10 54 -14 15 -15 30 -7 99 5 49 4 81 -1 81 -5 0 -7 14 -3
30 4 24 2 30 -12 31 -16 1 -16 2 1 6 12 3 17 14 17 38 0 18 7 49 15 68 8 20
12 43 9 51 -3 9 -2 16 4 16 14 0 23 70 11 93 -8 14 -8 18 0 13 6 -4 11 -2 11
4 0 7 8 9 21 5 18 -6 20 -4 15 13 -7 21 11 72 26 72 4 0 8 8 8 18 1 30 25 50
66 54 44 5 74 0 89 -14z m4753 -40 c3 -35 -22 -108 -37 -108 -10 0 -31 62 -31
90 0 29 28 62 49 58 10 -2 17 -16 19 -40z m-578 -78 c12 -8 8 -16 -26 -47 -22
-21 -45 -47 -52 -58 -6 -11 -14 -17 -18 -13 -4 4 2 20 12 35 11 15 19 33 19
40 0 11 35 51 45 52 3 0 12 -4 20 -9z m6990 0 c0 -5 -7 -10 -15 -10 -8 0 -15
5 -15 10 0 6 7 10 15 10 8 0 15 -4 15 -10z m3114 -149 c17 -27 -83 -61 -104
-36 -13 16 -6 21 54 35 44 11 44 11 50 1z m-1334 -26 c-7 -8 -20 -15 -29 -15
-13 1 -13 3 3 15 26 19 42 19 26 0z m-8201 -27 c1 -18 4 -46 5 -63 2 -16 7
-65 11 -108 8 -75 7 -78 -13 -84 -12 -3 -22 -12 -22 -19 0 -8 -9 -14 -20 -14
-11 0 -20 5 -20 10 0 6 -6 10 -14 10 -29 0 -38 27 -21 60 10 20 13 39 9 53 -5
12 -7 26 -6 30 1 5 -2 6 -7 3 -5 -3 -20 3 -32 13 -30 25 -20 46 37 78 21 12
42 31 46 42 12 34 43 26 47 -11z m10351 -10 c8 -13 18 -33 22 -45 8 -30 -10
-87 -33 -101 -15 -10 -20 -8 -29 8 -6 11 -7 20 -2 20 19 0 7 32 -20 51 -34 25
-35 32 -3 49 14 7 25 19 25 27 0 21 24 15 40 -9z m-1330 -16 c0 -17 -37 -42
-54 -36 -19 7 -20 16 -4 32 14 14 58 16 58 4z m-14060 -22 c0 -5 -5 -10 -11
-10 -5 0 -7 5 -4 10 3 6 8 10 11 10 2 0 4 -4 4 -10z m4290 -30 c0 -5 -4 -10
-10 -10 -5 0 -10 5 -10 10 0 6 5 10 10 10 6 0 10 -4 10 -10z m-179 -83 c-8 -8
-11 -7 -11 4 0 20 13 34 18 19 3 -7 -1 -17 -7 -23z m134 -38 c0 -8 -10 -15
-22 -17 -25 -4 -30 7 -11 26 15 15 33 10 33 -9z m-3915 -15 c0 -8 -4 -12 -10
-9 -5 3 -10 10 -10 16 0 5 5 9 10 9 6 0 10 -7 10 -16z m11598 -22 c2 -7 -3
-12 -12 -12 -9 0 -16 7 -16 16 0 17 22 14 28 -4z m2262 -42 c0 -15 -46 -34
-65 -26 -14 5 -15 9 -5 21 14 17 70 21 70 5z m-230 -56 c0 -8 -9 -14 -20 -14
-11 0 -23 0 -27 -1 -19 -2 -12 22 9 30 27 10 38 6 38 -15z m-9363 4 c-5 -16
-65 -14 -80 1 -8 8 2 11 37 11 34 0 46 -4 43 -12z m-350 -65 c-3 -10 -5 -2 -5
17 0 19 2 27 5 18 2 -10 2 -26 0 -35z m10399 18 c-7 -11 -97 -34 -104 -26 -9
8 5 17 40 25 46 11 70 12 64 1z m-10831 -82 c6 -6 3 -11 -12 -15 -12 -3 -24
-12 -27 -20 -3 -8 -10 -14 -15 -14 -6 0 -8 6 -5 14 3 8 1 17 -5 21 -6 3 -11
13 -11 22 0 12 7 14 32 9 18 -3 37 -11 43 -17z m-3625 -9 c0 -5 -4 -10 -10
-10 -5 0 -10 5 -10 10 0 6 5 10 10 10 6 0 10 -4 10 -10z m14912 -91 c-3 -35 5
-64 33 -128 40 -90 44 -146 12 -165 -15 -9 -22 -6 -43 19 -13 17 -26 46 -29
65 -4 19 -15 54 -26 78 -10 23 -19 55 -19 71 0 16 -7 34 -15 41 -33 28 2 71
55 67 l35 -2 -3 -46z m-11694 -88 c3 -8 -1 -12 -9 -9 -7 2 -15 10 -17 17 -3 8
1 12 9 9 7 -2 15 -10 17 -17z m1261 -31 c-11 -37 -11 -44 3 -54 9 -6 25 -17
35 -24 15 -11 13 -12 -22 -7 -61 10 -97 6 -118 -12 -10 -10 -37 -18 -62 -19
-25 -1 -61 -11 -81 -23 -42 -25 -141 -27 -136 -3 1 6 -7 12 -18 12 -27 0 -25
23 3 56 24 27 47 26 47 -2 0 -40 130 2 158 52 7 13 19 16 56 12 35 -4 49 -2
53 8 5 14 84 56 91 49 2 -2 -2 -22 -9 -45z m-1050 -10 c4 0 20 -29 35 -64 31
-72 52 -88 76 -56 8 11 32 25 52 30 33 9 56 35 43 48 -3 3 -23 5 -45 4 -28 -1
-42 3 -47 13 -8 23 2 28 27 15 17 -9 25 -8 39 4 21 19 41 21 41 4 0 -9 3 -9
12 0 7 7 25 12 40 12 20 0 28 5 29 18 0 10 3 12 6 5 2 -7 11 -13 18 -13 22 0
28 -20 14 -46 -8 -17 -21 -24 -41 -24 -35 0 -36 -17 -7 -103 16 -47 18 -66 10
-79 -6 -10 -11 -29 -11 -44 0 -21 3 -24 21 -19 12 4 31 3 43 -3 11 -6 52 -14
90 -19 45 -5 71 -13 74 -22 5 -14 -14 -13 -104 5 -26 5 -34 1 -58 -30 -22 -29
-25 -39 -16 -56 9 -17 8 -20 -10 -20 -11 0 -23 -7 -26 -15 -8 -19 -34 -19 -48
0 -9 12 -18 13 -49 4 -22 -6 -41 -8 -45 -5 -9 10 4 17 40 22 35 6 67 37 68 67
0 18 -11 22 -24 10 -8 -9 -14 -10 -51 -12 -17 -1 -29 -10 -38 -28 -14 -34 -25
-43 -54 -43 -20 0 -21 3 -13 26 6 14 7 36 4 49 -3 13 1 36 9 52 27 49 36 90
24 102 -16 16 -32 14 -18 -3 9 -11 8 -15 -5 -20 -26 -10 -34 -7 -34 12 0 19
-18 42 -32 42 -4 0 -8 -6 -8 -14 0 -8 -8 -24 -19 -37 -16 -21 -22 -22 -45 -11
-47 21 -16 98 33 80 29 -11 35 -6 26 22 -5 16 -13 21 -30 18 -16 -4 -22 -1
-18 9 3 7 10 13 15 13 6 0 8 16 5 38 -13 82 -14 96 -10 80 2 -10 8 -18 12 -18z
m2393 6 c24 -19 52 -46 61 -60 9 -13 29 -31 43 -38 49 -24 53 -44 16 -78 -38
-34 -50 -37 -59 -13 -16 42 -58 68 -128 78 -64 9 -75 19 -75 65 0 30 6 43 26
59 37 29 64 26 116 -13z m3324 -27 c1 -13 9 -41 18 -63 10 -21 15 -40 13 -43
-3 -2 -13 17 -22 42 -10 25 -27 51 -37 56 -16 8 -17 13 -7 25 17 20 34 12 35
-17z m-2676 -9 c13 -9 12 -12 -4 -25 -11 -8 -29 -15 -40 -14 -12 0 -15 3 -8 6
6 2 12 13 12 24 0 21 16 24 40 9z m-50 -70 c0 -22 -8 -25 -30 -10 -13 9 -13
11 0 20 22 15 30 12 30 -10z m-3060 1 c0 -5 -8 -11 -17 -14 -10 -2 -26 -8 -35
-12 -13 -5 -18 -2 -18 8 0 8 6 18 13 20 21 9 57 8 57 -2z m530 -31 c0 -19 -5
-30 -14 -30 -22 0 -28 17 -16 40 16 29 30 25 30 -10z m1327 -22 c-3 -7 -5 -2
-5 12 0 14 2 19 5 13 2 -7 2 -19 0 -25z m4813 7 c7 -8 9 -15 6 -15 -4 0 -14 7
-22 15 -9 8 -11 15 -6 15 5 0 15 -7 22 -15z m-4755 -15 c3 -6 -1 -7 -9 -4 -18
7 -21 14 -7 14 6 0 13 -4 16 -10z m-1479 -59 c1 -19 -3 -30 -9 -28 -18 6 -31
33 -24 51 11 27 31 13 33 -23z m5369 29 c3 -5 -1 -10 -10 -10 -9 0 -13 5 -10
10 3 6 8 10 10 10 2 0 7 -4 10 -10z m741 -17 c-10 -10 -19 5 -10 18 6 11 8 11
12 0 2 -7 1 -15 -2 -18z m-3546 -3 c0 -5 -4 -10 -10 -10 -5 0 -10 5 -10 10 0
6 5 10 10 10 6 0 10 -4 10 -10z m-3024 -35 c18 -43 18 -55 -1 -55 -15 0 -27
18 -45 64 -8 23 -7 26 11 26 13 0 25 -11 35 -35z m4397 -15 c-3 -11 -7 -20 -9
-20 -2 0 -4 9 -4 20 0 11 4 20 9 20 5 0 7 -9 4 -20z m-108 0 c3 -5 1 -10 -4
-10 -6 0 -11 5 -11 10 0 6 2 10 4 10 3 0 8 -4 11 -10z m2295 0 c0 -5 -4 -10
-10 -10 -5 0 -10 5 -10 10 0 6 5 10 10 10 6 0 10 -4 10 -10z m-6462 -32 c21
-2 9 -43 -14 -46 -21 -3 -74 32 -74 50 0 6 14 8 38 4 20 -3 43 -7 50 -8z
m4557 4 c14 -10 47 -75 35 -67 -6 3 -10 1 -10 -5 0 -6 -13 -1 -30 12 -28 21
-38 47 -23 61 8 9 15 9 28 -1z m-4018 -34 c-3 -8 -6 -5 -6 6 -1 11 2 17 5 13
3 -3 4 -12 1 -19z m4758 -18 c3 -5 -1 -10 -10 -10 -9 0 -13 5 -10 10 3 6 8 10
10 10 2 0 7 -4 10 -10z m-4743 -32 c-15 -15 -26 -4 -18 18 5 13 9 15 18 6 9
-9 9 -15 0 -24z m4638 6 c0 -8 -4 -12 -10 -9 -5 3 -10 10 -10 16 0 5 5 9 10 9
6 0 10 -7 10 -16z m-16 -40 c3 -8 2 -12 -4 -9 -6 3 -10 10 -10 16 0 14 7 11
14 -7z m-4720 -21 c7 -27 -6 -49 -34 -55 -11 -2 -15 8 -15 40 -1 37 1 42 21
42 15 0 24 -8 28 -27z m5954 -25 c18 -18 15 -55 -5 -62 -27 -11 -46 16 -34 47
12 30 21 33 39 15z m-348 -18 c0 -5 -5 -10 -11 -10 -5 0 -7 5 -4 10 3 6 8 10
11 10 2 0 4 -4 4 -10z m-250 -25 c0 -8 -4 -15 -9 -15 -13 0 -22 16 -14 24 11
11 23 6 23 -9z m-5743 -7 c19 -30 42 -41 58 -28 12 10 21 10 41 2 20 -10 30
-9 51 5 24 16 26 16 39 -2 20 -27 9 -35 -52 -35 -30 0 -54 -4 -54 -10 0 -5 -9
-10 -20 -10 -12 0 -20 7 -20 16 0 13 -7 15 -42 10 -37 -6 -45 -3 -57 16 -12
19 -11 23 5 35 22 16 41 17 51 1z m893 -4 c0 -8 -4 -12 -10 -9 -5 3 -10 10
-10 16 0 5 5 9 10 9 6 0 10 -7 10 -16z m4970 -89 c0 -15 -6 -25 -14 -25 -24 0
-30 22 -11 37 25 17 25 17 25 -12z m-5437 -10 c-6 -18 -34 -16 -41 3 -2 7 6
12 22 12 19 0 24 -4 19 -15z m307 -12 c-1 -24 -14 -53 -25 -53 -20 0 -25 39
-7 50 21 12 32 13 32 3z m220 -45 c0 -30 -31 -34 -52 -7 -20 23 -20 23 3 42
22 18 24 18 36 1 7 -10 13 -26 13 -36z m-179 -25 c-9 -15 -10 -13 -7 12 6 40
8 43 13 23 2 -10 0 -25 -6 -35z m3409 38 c0 -17 -18 -21 -24 -6 -3 9 0 15 9
15 8 0 15 -4 15 -9z m-1435 -52 c4 -6 13 -8 21 -5 20 8 24 -7 13 -47 -10 -36
-29 -51 -29 -24 0 8 -9 22 -20 32 -11 10 -20 26 -20 37 0 19 25 25 35 7z
m-6407 -46 c22 -18 24 -23 10 -23 -10 0 -18 5 -18 10 0 6 -9 10 -19 10 -10 0
-22 7 -25 16 -3 8 -2 12 4 9 6 -3 10 2 11 12 0 14 2 14 6 3 3 -8 17 -25 31
-37z m3842 33 c0 -25 -12 -46 -26 -46 -14 0 -20 41 -7 53 12 12 33 7 33 -7z
m548 -18 c-5 -32 -28 -35 -28 -4 0 17 5 26 16 26 10 0 14 -7 12 -22z m-4465
-13 c14 -6 15 -10 6 -21 -10 -12 -9 -13 5 -8 23 9 63 -3 87 -27 15 -15 24 -18
32 -10 17 17 27 13 27 -8 0 -27 59 -69 70 -51 6 10 12 4 23 -21 7 -19 21 -40
31 -48 10 -9 14 -21 10 -33 -5 -16 -2 -19 14 -14 14 5 26 -2 44 -26 47 -61
153 -166 193 -191 22 -14 56 -39 75 -56 19 -17 38 -31 42 -31 4 0 29 -19 55
-43 27 -23 86 -62 132 -86 46 -24 107 -60 137 -81 39 -27 73 -41 122 -50 90
-17 111 -29 179 -105 58 -65 92 -85 144 -85 15 0 31 -4 34 -10 3 -5 13 -10 21
-10 20 0 10 36 -18 67 -18 19 -19 26 -9 54 13 37 59 82 114 110 57 29 207 36
322 15 177 -34 211 -49 253 -118 12 -20 29 -38 37 -41 8 -4 36 6 62 20 l48 25
55 -17 c109 -34 289 -257 290 -359 0 -17 4 -47 9 -66 5 -24 2 -57 -10 -105
-24 -95 -24 -115 1 -115 11 0 19 4 18 9 -2 4 8 18 22 29 14 12 19 21 12 22 -7
0 -10 5 -7 10 5 8 11 8 19 1 9 -8 28 -4 64 14 58 28 68 30 77 15 9 -15 -14
-40 -36 -40 -22 0 -35 -18 -22 -31 6 -6 18 -1 31 11 25 24 55 26 72 5 11 -13
10 -18 -8 -31 -16 -11 -20 -20 -13 -32 4 -9 7 -21 5 -27 -4 -14 63 -68 76 -60
5 3 10 15 10 26 0 11 -4 17 -10 14 -5 -3 -10 3 -10 14 0 18 5 20 45 17 54 -4
99 -38 89 -68 -3 -12 0 -18 9 -18 24 0 65 -108 72 -191 6 -80 -1 -133 -16
-123 -6 3 -7 15 -4 27 5 17 4 19 -4 7 -8 -12 -11 -11 -17 5 -4 11 -23 41 -41
67 -18 26 -33 52 -33 58 0 5 -9 14 -20 20 -22 12 -28 42 -6 34 9 -4 16 6 21
33 4 24 3 39 -4 41 -6 2 -11 9 -11 16 0 7 -11 18 -24 24 -23 10 -25 9 -28 -20
-2 -23 -8 -32 -23 -33 -47 -4 -65 -16 -65 -45 0 -45 8 -56 66 -91 53 -33 66
-48 42 -50 -7 -1 -17 -2 -23 -4 -5 -1 -17 -3 -26 -3 -9 -1 -26 -10 -38 -19
-19 -16 -19 -22 -9 -58 6 -22 12 -96 12 -165 1 -116 0 -126 -21 -142 -11 -10
-28 -18 -35 -18 -23 0 -56 42 -60 75 -2 23 -10 32 -33 40 -42 14 -65 36 -65
62 0 16 6 22 23 21 79 -3 94 26 99 187 l3 109 -27 13 c-15 8 -30 22 -33 33 -7
22 -46 46 -85 51 -20 3 -24 0 -21 -16 2 -11 7 -83 12 -160 4 -77 11 -157 14
-178 13 -68 -30 -87 -91 -40 -38 29 -64 70 -64 102 0 17 5 20 28 15 21 -4 33
1 56 25 25 26 28 35 23 71 -5 40 -28 69 -54 70 -7 0 -13 -6 -13 -12 0 -7 -11
-26 -25 -42 -15 -18 -25 -41 -25 -61 0 -29 -2 -31 -30 -27 -16 2 -30 8 -30 14
0 5 -11 26 -25 46 -14 20 -25 47 -25 59 0 19 6 22 42 25 35 2 45 8 56 30 13
28 26 151 13 130 -5 -9 -28 -12 -72 -10 -61 3 -63 4 -70 33 -4 17 -16 49 -28
72 -12 23 -21 47 -21 53 0 5 -4 10 -10 10 -5 0 -10 11 -10 24 0 39 -56 55
-160 46 -47 -5 -96 -11 -110 -14 -37 -9 -209 -15 -253 -9 -29 4 -37 9 -32 21
3 8 3 23 -1 34 -4 15 -14 18 -46 16 -32 -2 -44 3 -59 22 -10 14 -19 34 -19 46
0 11 -10 40 -23 64 -21 40 -25 43 -72 47 -28 2 -62 12 -77 23 -15 11 -33 20
-40 20 -7 0 -28 9 -46 20 -39 24 -102 27 -102 6 0 -8 -9 -17 -20 -21 -44 -14
-85 -111 -70 -165 5 -19 8 -42 5 -50 -7 -21 -75 -51 -103 -45 -25 4 -92 -20
-92 -34 0 -5 -15 -15 -32 -24 -38 -17 -105 -12 -126 9 -7 8 -18 11 -24 8 -5
-3 -20 4 -33 16 -17 16 -22 30 -20 56 2 19 0 34 -4 34 -5 0 -14 20 -21 45 -7
24 -17 43 -23 42 -5 -1 -13 10 -18 26 -8 29 -47 76 -64 77 -15 1 -55 37 -55
50 0 6 4 9 9 5 5 -3 12 -1 16 5 3 5 -1 10 -9 10 -8 0 -18 -5 -21 -10 -9 -15
-25 -2 -25 19 0 11 -18 50 -40 87 -22 38 -40 73 -40 79 0 23 -26 65 -37 60 -7
-2 -12 0 -10 6 1 6 -7 16 -18 22 -11 7 -25 19 -32 28 -13 17 -98 49 -130 49
-11 0 -23 4 -29 10 -13 13 -155 49 -170 43 -6 -2 -14 6 -18 19 -5 19 -8 21
-17 8 -9 -12 -10 -11 -6 8 5 19 2 22 -16 18 -12 -3 -16 -3 -9 0 19 9 14 24 -9
24 -11 0 -18 4 -15 9 9 14 -4 41 -20 41 -8 0 -14 5 -14 10 0 6 7 10 15 10 22
0 19 9 -10 32 -14 11 -25 25 -24 31 1 7 -1 24 -5 40 -5 17 -4 33 4 42 9 10 9
15 1 15 -6 0 -11 4 -11 10 0 5 7 7 16 3 14 -5 16 2 12 61 -3 37 -10 72 -15 77
-7 7 -6 20 4 40 12 24 12 33 3 44 -10 12 -9 15 9 15 14 0 21 6 21 20 0 11 3
19 8 19 4 -1 14 -1 22 0 12 1 12 4 -3 15 -15 12 -15 14 -2 19 8 4 12 13 9 22
-4 9 0 15 9 15 9 0 19 5 23 11 5 9 -3 10 -30 5 -28 -5 -36 -4 -36 8 0 16 46
16 83 1z m6933 -31 c16 -37 18 -54 6 -54 -8 0 -27 41 -35 78 -7 32 12 16 29
-24z m-100 2 c3 -15 -2 -38 -15 -62 -13 -24 -20 -31 -19 -19 1 11 -2 35 -6 54
-6 24 -4 36 5 42 22 14 28 11 35 -15z m-2816 -11 c-27 -33 40 -66 92 -44 16 6
31 9 34 7 9 -9 -8 -38 -22 -38 -8 0 -14 -4 -14 -10 0 -5 -3 -9 -7 -9 -5 1 -15
1 -23 0 -12 -1 -11 -4 3 -18 16 -16 16 -18 -5 -30 l-23 -12 23 -1 c12 0 22 -4
22 -9 0 -24 -47 -15 -83 16 -23 20 -48 33 -65 33 -15 0 -35 9 -45 20 -25 29
-61 25 -91 -11 -29 -35 -33 -61 -11 -79 8 -7 15 -18 15 -26 0 -19 21 -29 30
-13 12 18 48 19 55 1 6 -17 -12 -42 -31 -42 -8 0 -14 -7 -14 -16 0 -13 -5 -12
-29 5 -16 12 -43 21 -60 21 -36 0 -56 29 -46 67 4 17 1 29 -7 34 -7 5 -13 22
-13 39 0 24 4 30 21 30 12 0 26 11 34 25 7 14 19 25 26 25 7 0 18 9 25 21 l11
21 22 -21 c21 -20 42 -21 91 -2 79 32 101 36 85 16z m-4090 -5 c0 -5 -7 -7
-15 -4 -8 4 -15 8 -15 10 0 2 7 4 15 4 8 0 15 -4 15 -10z m5674 -9 c27 -13 40
-26 41 -41 1 -18 -2 -20 -22 -15 -21 5 -23 2 -23 -34 0 -38 2 -41 38 -50 20
-6 42 -11 48 -11 21 0 49 -94 37 -126 -5 -14 -49 -6 -64 12 -6 8 -17 14 -23
15 -17 0 -76 78 -76 100 0 11 7 19 16 19 8 0 12 5 9 10 -3 6 -15 10 -25 10
-11 0 -24 9 -30 20 -6 11 -16 20 -22 20 -20 0 -48 33 -48 57 0 25 11 29 40 13
13 -7 21 -6 30 5 16 19 26 18 74 -4z m3409 -37 c39 -28 52 -33 58 -22 7 10 9
9 9 -4 0 -19 89 -88 114 -88 18 0 22 -15 6 -25 -6 -4 -24 7 -40 24 -17 16 -40
33 -53 36 -12 4 -33 17 -47 29 -14 12 -44 34 -66 49 -41 25 -42 25 -47 5 -3
-11 -10 -17 -16 -14 -12 8 7 46 23 46 5 0 31 -16 59 -36z m-5369 -63 c11 -17
13 -106 3 -135 -14 -43 -23 -51 -42 -36 -30 25 -13 180 20 180 8 0 16 -4 19
-9z m964 -13 c7 -7 12 -27 12 -45 0 -29 -3 -33 -26 -33 -26 0 -54 20 -54 39 0
11 39 51 50 51 3 0 11 -5 18 -12z m1127 -5 c-2 -10 -4 -19 -4 -21 -1 -2 -6 0
-11 3 -8 5 -7 11 1 21 15 18 18 18 14 -3z m-1405 -120 c0 -11 -7 -13 -32 -8
-49 11 -56 19 -23 25 37 8 55 2 55 -17z m-140 -43 c0 -5 -4 -10 -10 -10 -5 0
-10 5 -10 10 0 6 5 10 10 10 6 0 10 -4 10 -10z m1347 -12 c54 -44 92 -68 107
-68 22 0 29 -31 7 -37 -10 -2 -44 -35 -75 -73 -34 -40 -63 -67 -71 -64 -7 3
-16 1 -20 -5 -3 -6 -12 -11 -19 -11 -17 0 -39 47 -26 55 18 11 11 63 -9 70
-10 3 -26 14 -36 25 -10 11 -27 20 -37 20 -28 0 -32 26 -11 62 21 36 45 46
115 47 34 1 54 -5 75 -21z m-5683 6 c18 -7 12 -24 -10 -24 -8 0 -14 7 -14 15
0 17 2 18 24 9z m4273 0 c-3 -3 -12 -4 -19 -1 -8 3 -5 6 6 6 11 1 17 -2 13 -5z
m4553 -14 c0 -5 -5 -10 -11 -10 -5 0 -7 5 -4 10 3 6 8 10 11 10 2 0 4 -4 4
-10z m-5052 -12 c-6 -18 -28 -21 -28 -4 0 9 7 16 16 16 9 0 14 -5 12 -12z
m792 -7 c0 -19 -23 -35 -34 -24 -14 15 -5 43 14 43 13 0 20 -7 20 -19z m170
-1 c0 -5 -2 -10 -4 -10 -3 0 -8 5 -11 10 -3 6 -1 10 4 10 6 0 11 -4 11 -10z
m1370 -10 c13 -8 13 -11 -1 -25 -17 -17 -49 -11 -49 9 0 26 23 33 50 16z
m-1480 -72 c0 -6 -7 -7 -16 -4 -9 3 -21 6 -27 6 -7 0 -7 4 2 9 16 10 41 4 41
-11z m-890 -59 c24 -6 39 -17 48 -36 28 -62 37 -73 59 -73 28 0 29 -10 4 -50
-20 -34 -33 -27 -45 24 -6 26 -56 99 -81 119 -5 4 -40 6 -77 4 -49 -3 -68 -1
-68 8 0 6 2 14 5 17 7 7 112 -2 155 -13z m-62 -56 c-5 -24 -25 -27 -31 -3 -4
15 0 20 15 20 13 0 18 -6 16 -17z m987 -33 c3 -5 1 -10 -4 -10 -6 0 -11 5 -11
10 0 6 2 10 4 10 3 0 8 -4 11 -10z m945 -30 c0 -5 -13 -10 -30 -10 -16 0 -30
4 -30 8 0 4 14 9 30 10 17 1 30 -2 30 -8z m-29 -32 c58 -48 63 -129 10 -180
l-30 -29 -16 25 c-12 17 -14 32 -9 48 11 30 11 33 13 96 1 54 7 61 32 40z
m1009 -18 c0 -5 -5 -10 -11 -10 -5 0 -7 5 -4 10 3 6 8 10 11 10 2 0 4 -4 4
-10z m-1910 -95 c-7 -8 -16 -15 -21 -15 -14 0 -11 38 4 43 20 7 31 -11 17 -28z
m1884 -1 c21 -8 20 -30 -1 -38 -17 -7 -33 9 -33 32 0 13 10 15 34 6z m-2674
-25 c0 -5 -4 -9 -10 -9 -5 0 -10 7 -10 16 0 8 5 12 10 9 6 -3 10 -10 10 -16z
m4490 7 c0 -8 -5 -18 -11 -22 -14 -8 -33 11 -25 25 10 16 36 13 36 -3z m-7840
-36 c0 -5 -2 -10 -4 -10 -3 0 -8 5 -11 10 -3 6 -1 10 4 10 6 0 11 -4 11 -10z
m2714 -129 c3 -5 -1 -11 -9 -15 -8 -3 -15 -13 -15 -22 0 -17 -87 -124 -101
-124 -14 0 -11 69 4 86 32 39 63 64 79 64 10 0 18 5 18 10 0 12 17 13 24 1z
m11884 -113 c-2 -18 -8 -22 -28 -20 -31 5 -32 6 -24 26 3 9 17 16 31 16 20 0
24 -4 21 -22z m-7308 -108 c0 -14 -7 -20 -22 -20 -27 0 -68 -37 -68 -61 0 -12
-5 -16 -15 -13 -22 9 -18 41 6 47 11 3 23 14 26 25 9 36 73 55 73 22z m-93
-22 c-3 -8 -6 -5 -6 6 -1 11 2 17 5 13 3 -3 4 -12 1 -19z m5052 -53 c17 -36
31 -78 31 -94 0 -16 6 -31 13 -34 8 -3 6 -9 -8 -20 -18 -14 -22 -14 -42 5 -17
16 -21 28 -17 60 3 22 1 37 -3 35 -5 -3 -17 15 -27 39 -14 36 -16 47 -6 59 20
24 27 18 59 -50z m-4809 -5 c0 -24 -25 -27 -34 -4 -13 33 -7 45 14 34 11 -6
20 -20 20 -30z m-7610 -10 c0 -5 -4 -10 -10 -10 -5 0 -10 5 -10 10 0 6 5 10
10 10 6 0 10 -4 10 -10z m7550 -62 c0 -4 15 -11 33 -16 30 -8 46 -37 20 -37
-24 0 -112 86 -106 102 5 13 11 11 30 -13 12 -16 23 -32 23 -36z m-7420 2 c0
-5 -4 -10 -10 -10 -5 0 -10 5 -10 10 0 6 5 10 10 10 6 0 10 -4 10 -10z m7330
-50 c0 -18 -23 -34 -34 -23 -11 11 -6 41 7 46 17 6 27 -1 27 -23z m7623 -27
c-7 -2 -19 -2 -25 0 -7 3 -2 5 12 5 14 0 19 -2 13 -5z m-9891 -74 c18 -12 35
-24 37 -26 3 -2 -5 -12 -17 -23 -12 -12 -22 -29 -22 -40 0 -22 -54 -55 -76
-46 -10 4 -14 -4 -14 -32 0 -64 8 -79 38 -75 15 3 36 -2 46 -10 18 -14 18 -15
-3 -44 -16 -21 -20 -37 -16 -56 4 -15 11 -27 16 -27 5 0 9 -7 9 -15 0 -8 4
-15 10 -15 30 0 17 -132 -17 -165 -9 -10 -16 -31 -15 -51 1 -33 -5 -39 -35
-35 -7 1 -13 -3 -13 -9 0 -6 -11 -21 -23 -34 -23 -23 -23 -24 -6 -47 16 -21
19 -21 19 -6 0 13 6 17 21 15 29 -4 43 -29 36 -60 -9 -36 -51 -43 -68 -11 -7
13 -17 22 -23 21 -14 -2 -69 24 -78 37 -5 6 -8 5 -8 -2 0 -7 -7 -13 -15 -13
-14 0 -17 -12 -30 -114 l-7 -48 -23 22 c-19 18 -22 27 -15 41 14 26 12 65 -4
78 -8 7 -27 13 -42 14 -32 2 -45 -16 -66 -98 -7 -28 -21 -56 -31 -64 -15 -10
-17 -21 -12 -47 4 -26 3 -34 -9 -34 -9 0 -20 9 -26 20 -14 26 -54 26 -88 -1
l-27 -21 -3 54 c-4 61 23 174 44 182 10 4 14 -2 14 -19 0 -20 5 -25 24 -25 14
0 28 -4 31 -10 3 -5 11 -10 17 -10 6 0 3 11 -6 25 -19 28 -13 70 9 62 25 -10
34 14 14 36 -19 20 -19 22 -2 28 23 8 54 -8 60 -32 6 -23 43 -26 43 -3 0 9 8
23 18 30 15 12 15 13 0 14 -9 0 -19 -6 -22 -12 -5 -10 -7 -10 -12 0 -3 6 -11
12 -17 12 -7 0 -18 19 -25 43 -7 23 -23 49 -34 58 -12 9 -26 32 -32 50 -9 28
-17 35 -46 39 -24 3 -38 13 -47 30 -11 23 -10 26 20 41 26 14 33 25 37 55 4
31 10 40 28 42 23 4 47 36 38 51 -10 16 23 33 49 27 31 -8 43 14 27 47 -19 40
-12 57 24 57 28 0 35 5 48 33 8 17 17 44 20 59 6 25 8 27 26 15 15 -9 23 -9
28 -1 42 65 53 71 123 69 52 -2 75 -8 101 -26z m7198 -18 c0 -5 9 -13 20 -16
11 -3 20 -11 20 -16 0 -6 -4 -7 -10 -4 -5 3 -10 1 -10 -5 0 -15 61 -70 77 -70
16 0 18 -66 3 -75 -5 -3 -10 -15 -10 -26 0 -11 -7 -19 -17 -19 -9 0 -24 -7
-33 -15 -11 -10 -27 -13 -49 -9 -17 4 -29 9 -26 12 2 3 -1 12 -7 20 -10 12 -9
17 10 30 28 18 28 32 0 32 -21 0 -21 0 -3 14 16 12 17 16 6 29 -14 18 -12 83
3 110 12 18 26 23 26 8z m1580 -66 c28 -9 24 -34 -10 -75 -17 -19 -30 -40 -30
-47 0 -7 -6 -10 -14 -7 -8 3 -17 1 -21 -5 -8 -14 -42 -14 -50 -1 -11 18 5 87
26 111 10 12 19 26 19 30 0 8 45 5 80 -6z m-1630 -65 c0 -5 -4 -10 -9 -10 -4
0 -25 -11 -46 -25 -20 -15 -40 -23 -44 -19 -3 4 0 9 7 11 6 3 10 8 7 13 -3 5
2 16 11 24 17 18 74 22 74 6z m-5765 -60 c3 -5 -1 -10 -9 -10 -9 0 -16 5 -16
10 0 6 4 10 9 10 6 0 13 -4 16 -10z m6159 -15 c13 -14 28 -25 35 -25 6 0 11
-6 11 -14 0 -8 7 -22 15 -30 14 -13 14 -18 2 -38 -8 -13 -18 -36 -21 -52 -7
-30 -32 -56 -77 -81 -36 -19 -59 -82 -59 -159 0 -68 -7 -99 -20 -91 -4 3 -6
-16 -5 -40 2 -26 -1 -43 -6 -40 -5 4 -9 -16 -9 -43 l0 -49 -42 -7 c-24 -4 -56
-12 -71 -19 -27 -11 -28 -14 -21 -62 8 -61 18 -82 44 -90 11 -3 20 -13 20 -20
0 -8 8 -19 18 -24 9 -6 13 -11 8 -11 -19 0 18 -30 39 -30 33 0 62 78 35 95
-17 11 -11 41 13 62 25 22 95 30 126 13 11 -5 22 -19 26 -30 9 -27 78 -48 100
-30 21 17 19 29 -10 52 -19 15 -25 29 -25 58 0 21 6 45 14 52 17 18 56 97 56
115 0 23 65 82 97 89 29 6 31 4 35 -30 2 -20 -1 -41 -7 -47 -7 -7 -3 -15 12
-27 18 -14 21 -27 21 -80 0 -53 -3 -64 -21 -74 -12 -7 -25 -12 -29 -13 -4 0
-20 -13 -35 -28 -16 -15 -41 -38 -58 -51 l-29 -24 25 -38 c46 -69 48 -124 5
-124 -16 0 -29 11 -42 35 -10 20 -24 33 -31 30 -7 -2 -13 0 -13 6 0 6 -4 8 -9
5 -4 -3 -16 3 -26 14 -30 33 -92 20 -78 -16 3 -8 -1 -14 -11 -14 -24 0 -30
-25 -13 -59 13 -26 13 -32 1 -42 -8 -6 -14 -17 -14 -24 0 -7 -6 -15 -13 -18
-15 -5 -37 -91 -37 -142 0 -18 -7 -49 -15 -68 -12 -29 -12 -38 -2 -44 7 -4 18
-19 25 -33 7 -14 19 -36 27 -50 11 -19 11 -26 2 -32 -9 -6 -8 -11 4 -18 13 -7
16 -22 13 -60 -4 -58 18 -90 61 -90 14 0 25 -6 25 -12 0 -9 4 -8 10 2 6 10 13
11 18 5 12 -17 60 -45 77 -45 8 0 20 -12 25 -26 6 -14 14 -23 20 -19 19 12 38
-48 33 -106 -4 -38 0 -65 10 -85 8 -16 12 -35 10 -41 -3 -7 1 -19 9 -26 17
-17 16 -71 -5 -252 -9 -77 -17 -150 -17 -162 0 -54 -114 -30 -126 26 -3 14 -9
42 -14 62 -6 20 -10 46 -10 58 0 16 -6 21 -24 21 -14 0 -27 4 -31 10 -3 5 -12
7 -20 3 -8 -3 -15 0 -15 7 0 7 -7 10 -16 6 -16 -6 -84 56 -84 77 0 13 -40 57
-52 57 -19 0 -48 -67 -48 -112 0 -26 -4 -50 -10 -53 -5 -3 -10 -33 -10 -66 0
-40 -7 -73 -20 -99 -11 -22 -20 -48 -20 -58 0 -10 -7 -27 -15 -38 -8 -10 -15
-32 -15 -47 0 -16 -4 -25 -10 -22 -5 3 -3 -9 4 -27 8 -18 24 -35 35 -38 11 -3
38 -32 60 -66 37 -57 102 -124 120 -124 11 0 47 -76 61 -130 19 -77 28 -105
29 -96 1 5 8 3 16 -4 8 -7 24 -10 35 -7 15 4 20 0 20 -14 0 -10 5 -19 11 -19
5 0 7 4 4 10 -3 5 7 16 22 22 44 20 62 40 69 75 4 19 12 33 20 33 10 0 14 14
14 50 0 47 3 52 58 105 31 30 64 55 73 55 9 0 22 7 29 15 7 8 21 15 32 15 10
0 29 11 41 24 13 13 38 29 57 34 19 5 34 15 32 21 -1 7 2 10 7 6 6 -3 18 2 29
13 16 16 19 17 35 2 20 -20 21 -42 2 -93 -8 -25 -10 -49 -5 -66 13 -45 0 -54
-77 -54 -68 -1 -69 -2 -86 -34 -9 -19 -17 -49 -17 -68 0 -18 -4 -35 -10 -37
-5 -1 -10 -29 -11 -61 -1 -34 -8 -62 -16 -68 -7 -6 -13 -20 -13 -30 0 -11 -5
-19 -11 -19 -6 0 -9 -5 -7 -12 4 -12 -32 -52 -60 -66 -27 -13 -179 -9 -194 6
-6 6 -22 12 -35 12 -14 0 -23 6 -23 16 0 13 -11 15 -66 13 l-66 -4 -21 39
c-12 22 -28 46 -34 54 -7 7 -13 18 -13 23 0 12 -55 12 -78 0 -9 -6 -34 -13
-55 -16 -20 -3 -52 -19 -70 -35 -50 -43 -197 -65 -197 -28 0 5 -9 23 -21 39
-11 16 -18 35 -15 42 11 24 31 52 41 59 6 5 5 8 -2 8 -9 0 -13 16 -13 48 0 26
-5 65 -11 87 -17 63 -11 105 23 159 27 44 30 56 25 103 -3 30 -1 53 4 53 9 0
59 96 59 115 0 14 32 55 98 124 68 71 77 88 61 108 -11 12 -25 14 -73 8 -67
-7 -111 -26 -126 -54 -5 -11 -10 -43 -10 -71 0 -44 -3 -52 -26 -62 -19 -9 -24
-17 -19 -32 3 -12 8 -45 12 -73 l6 -53 -39 0 c-65 0 -73 13 -60 93 10 56 -5
101 -42 125 -14 9 -33 34 -43 56 -17 39 -17 41 2 78 20 39 42 53 124 78 29 9
65 37 130 104 101 104 137 130 180 135 43 4 44 9 5 41 -40 33 -79 70 -98 94
-11 13 -11 20 -2 31 10 12 10 15 0 15 -10 0 -9 4 1 16 8 10 23 14 42 11 31 -4
46 14 30 36 -6 6 -13 34 -17 62 -5 44 -4 52 16 66 19 15 20 19 9 33 -7 9 -19
16 -26 16 -14 0 -75 82 -75 102 0 7 -16 33 -35 57 -19 24 -35 50 -35 58 0 20
-30 77 -46 86 -8 4 -14 15 -14 22 0 8 -4 15 -8 15 -5 0 -18 9 -31 21 -12 12
-25 18 -29 14 -3 -3 0 -10 7 -14 21 -13 -5 -54 -30 -48 -15 4 -23 -1 -30 -20
-5 -14 -12 -23 -16 -20 -3 3 -20 -5 -38 -19 -19 -14 -43 -26 -54 -27 -12 -1
-21 -5 -21 -9 0 -4 -6 -8 -13 -8 -8 0 -24 -9 -37 -20 -13 -11 -29 -20 -35 -20
-7 0 -18 -7 -25 -15 -7 -8 -21 -15 -31 -15 -11 0 -19 -7 -19 -15 0 -17 -12
-19 -26 -5 -6 6 -21 6 -43 0 -25 -7 -40 -6 -60 5 -15 7 -44 16 -65 20 -50 10
-96 49 -96 83 0 31 29 112 47 130 7 7 13 18 13 23 0 5 7 9 14 9 8 0 21 12 28
27 16 33 53 42 183 41 50 0 118 1 152 1 72 2 108 -13 147 -59 14 -18 26 -27
26 -21 0 17 37 13 55 -5 9 -9 19 -13 23 -9 4 4 1 10 -5 12 -19 7 -15 33 5 33
13 0 14 2 4 9 -12 7 -12 12 -1 30 8 11 21 21 30 21 10 0 22 13 28 30 9 28 12
29 31 18 21 -13 21 -13 0 -16 -23 -4 -27 -22 -4 -22 8 0 12 -4 9 -10 -3 -5 1
-20 9 -32 9 -12 16 -30 16 -39 0 -9 6 -28 13 -42 10 -20 17 -23 25 -15 8 8 15
8 27 -2 18 -15 31 -6 37 25 2 11 8 19 14 18 11 -2 12 92 1 103 -4 5 -12 2 -16
-5 -6 -8 -11 -9 -15 -3 -3 6 3 13 14 17 12 4 20 15 20 28 -1 20 -2 20 -13 6
-15 -19 -38 -7 -50 25 -7 17 -9 17 -25 3 -23 -20 -70 -18 -65 4 3 8 -3 21 -11
28 -9 8 -16 22 -16 32 0 25 -10 29 -74 30 -31 1 -59 6 -62 10 -3 5 -14 9 -25
9 -24 0 -37 29 -19 40 10 6 4 13 -22 26 -37 17 -54 49 -38 68 4 6 11 27 15 47
5 27 13 38 33 45 33 12 95 -1 134 -28 14 -10 34 -18 43 -18 9 0 30 -8 47 -17
28 -17 30 -17 44 2 8 11 14 31 12 45 -3 34 21 90 39 90 8 0 12 4 8 9 -3 5 0
13 6 16 5 4 8 14 5 22 -4 9 1 21 11 29 17 12 15 14 -13 24 -32 11 -42 43 -18
58 6 4 16 17 23 30 6 12 21 22 33 22 20 0 20 1 3 20 -17 18 -16 19 9 26 18 4
26 12 23 23 -2 9 -9 15 -15 14 -7 -2 -12 7 -12 20 0 29 -15 51 -29 43 -6 -4
-11 0 -11 8 0 9 8 16 19 16 11 0 21 6 23 12 3 9 9 8 22 -5 10 -9 23 -17 29
-18 7 0 33 -2 58 -5 45 -4 47 -3 59 28 16 40 49 78 67 78 8 0 24 -11 37 -25z
m-10478 -31 c-25 -18 -30 -12 -22 22 7 26 8 26 24 10 16 -16 16 -18 -2 -32z
m3036 -39 c11 -44 -9 -55 -26 -14 -8 18 -12 37 -9 42 9 15 27 1 35 -28z
m-2213 -65 l45 -41 -23 -22 -22 -22 -37 21 c-32 19 -37 27 -40 63 -4 55 18 55
77 1z m10609 18 c16 -16 15 -60 -3 -84 -18 -23 -19 -54 -3 -91 14 -35 10 -119
-8 -154 -23 -45 -105 -76 -180 -70 -13 1 -25 48 -17 68 3 7 9 10 14 7 5 -3 9
9 9 27 0 18 10 46 23 63 13 17 29 51 36 76 7 25 21 63 31 85 9 22 20 48 23 57
3 9 16 18 29 21 13 2 25 5 29 6 3 0 10 -4 17 -11z m-8000 -36 c2 -13 -2 -30
-8 -37 -7 -9 -9 -26 -6 -40 5 -18 2 -27 -9 -31 -22 -9 -18 -26 5 -19 13 4 26
-2 41 -20 14 -15 29 -23 39 -20 18 6 48 -21 37 -32 -4 -3 -2 -12 4 -20 21 -24
-7 -41 -67 -40 -38 0 -59 -5 -65 -14 -11 -18 -11 -39 0 -39 12 0 22 -44 15
-64 -7 -19 -34 -9 -34 13 0 13 -2 13 -9 2 -7 -11 -10 -10 -18 4 -8 14 -13 15
-30 5 -29 -19 -88 -4 -113 27 -21 27 -26 53 -11 53 5 0 13 10 17 23 4 12 18
39 33 60 22 32 31 37 57 35 31 -4 32 -3 32 38 1 29 -6 51 -20 69 -17 22 -19
29 -7 36 8 5 21 9 30 9 8 0 24 7 35 15 26 20 48 15 52 -13z m6299 -17 c8 -9
13 -19 10 -22 -6 -5 -37 21 -37 31 0 10 11 6 27 -9z m-9208 -40 c42 -21 58
-67 59 -172 1 -51 -2 -93 -6 -93 -12 0 -53 119 -62 182 -5 34 -14 66 -19 71
-12 12 -15 27 -6 27 4 0 19 -7 34 -15z m1561 -21 c0 -3 -5 -15 -11 -26 -9 -17
-13 -18 -20 -7 -15 23 -10 39 11 39 11 0 20 -3 20 -6z m-913 -50 c3 -9 2 -28
-3 -43 -11 -29 -36 -30 -89 -4 -41 21 -41 20 -15 43 29 25 98 28 107 4z m2318
-4 c3 -5 2 -10 -4 -10 -5 0 -13 5 -16 10 -3 6 -2 10 4 10 5 0 13 -4 16 -10z
m-1230 -86 c-21 -71 -13 -114 20 -114 24 0 55 -33 55 -57 0 -16 -32 -17 -47
-2 -8 8 -17 7 -32 -3 -19 -11 -20 -19 -15 -70 6 -53 5 -58 -14 -58 -16 0 -20
9 -26 60 -4 33 -4 64 -1 69 3 5 -4 33 -15 62 -19 48 -19 53 -5 76 10 14 13 32
9 45 -7 23 9 38 42 38 14 0 24 9 29 23 6 19 8 19 12 5 2 -10 -3 -43 -12 -74z
m95 76 c0 -5 -4 -10 -10 -10 -5 0 -10 5 -10 10 0 6 5 10 10 10 6 0 10 -4 10
-10z m10743 -89 c10 -48 43 -127 65 -156 26 -33 30 -105 7 -129 -8 -8 -15 -19
-15 -24 0 -19 -28 -32 -56 -26 -30 6 -74 60 -74 92 -1 9 -10 33 -20 52 -80
145 -78 219 5 230 52 7 82 -6 88 -39z m-12230 2 c23 -22 22 -75 -2 -97 -22
-20 -44 -16 -79 14 -22 18 -23 21 -7 36 9 9 14 23 11 30 -3 8 -3 21 1 30 7 18
48 11 76 -13z m1205 15 c13 -17 19 -73 8 -75 -5 0 -13 -9 -18 -18 -17 -29 -39
2 -32 44 8 50 12 61 22 61 5 0 14 -6 20 -12z m1062 -6 c0 -15 -28 -47 -35 -40
-11 11 5 48 21 48 8 0 14 -4 14 -8z m2126 -2 c19 -8 30 -8 38 0 20 20 64 11
84 -17 19 -28 20 -57 5 -170 -6 -50 -16 -53 -83 -22 -101 46 -146 130 -104
194 18 28 22 29 60 15z m-3384 -45 c0 -5 -5 -11 -11 -13 -6 -2 -11 4 -11 13 0
9 5 15 11 13 6 -2 11 -8 11 -13z m538 -39 c0 -3 -4 -8 -10 -11 -5 -3 -10 -1
-10 4 0 6 5 11 10 11 6 0 10 -2 10 -4z m-334 -37 c3 -6 15 -9 25 -6 12 3 25
-3 34 -16 17 -25 13 -34 -28 -51 -44 -18 -67 -5 -67 38 0 43 19 62 36 35z
m9141 -102 c7 -4 13 -16 13 -25 1 -15 2 -15 15 2 19 25 31 13 38 -37 6 -36 4
-38 -35 -57 -40 -19 -68 -19 -38 0 12 8 11 10 -5 10 -29 0 -52 94 -33 135 l12
27 10 -23 c6 -13 16 -28 23 -32z m-7842 23 c11 -5 28 -11 38 -14 9 -3 17 -9
17 -13 0 -12 -59 -73 -71 -73 -12 0 -12 27 1 35 12 7 1 35 -14 35 -18 0 -35
21 -29 36 4 12 16 11 58 -6z m2225 -66 c0 -44 -22 -54 -60 -25 -16 11 -36 21
-45 21 -32 0 18 38 55 42 47 5 50 2 50 -38z m-2630 -5 c30 -16 38 -25 30 -33
-7 -7 -15 -7 -28 1 -10 6 -30 9 -45 6 -22 -4 -27 -2 -27 15 0 17 6 23 27 31 1
1 21 -9 43 -20z m9222 -32 c16 -25 8 -97 -12 -117 -11 -11 -20 -28 -20 -37 0
-15 -2 -16 -10 -3 -8 12 -12 13 -19 2 -13 -22 -20 -19 -41 16 -18 30 -19 38
-8 70 7 20 21 50 31 65 16 23 24 27 46 22 14 -4 29 -12 33 -18z m-8622 -22 c0
-20 -5 -25 -25 -25 -29 0 -34 24 -7 39 26 16 32 13 32 -14z m-299 -21 c5 -15
7 -29 4 -32 -3 -3 -5 0 -5 6 0 6 -10 12 -22 14 -30 4 -37 38 -8 38 13 0 24 -9
31 -26z m2437 -9 c-3 -3 -9 2 -12 12 -6 14 -5 15 5 6 7 -7 10 -15 7 -18z
m-2703 -65 c-6 -28 -4 -30 20 -30 25 0 27 -3 22 -29 -4 -20 -2 -31 8 -35 19
-7 19 -52 1 -108 -8 -24 -16 -58 -20 -75 -12 -69 -56 -104 -86 -68 -7 8 -19
15 -27 15 -7 0 -16 7 -19 15 -10 25 -32 17 -39 -16 -8 -36 -38 -37 -43 -1 -2
13 -12 28 -23 35 -10 6 -19 20 -19 29 0 10 -7 33 -17 52 -13 29 -14 38 -3 51
15 18 35 6 46 -27 7 -24 68 -88 84 -88 5 0 10 -4 10 -10 0 -5 11 -10 25 -10
22 0 25 3 19 24 -5 21 -3 23 21 19 24 -5 25 -7 10 -23 -8 -9 -12 -20 -8 -23
16 -17 29 -3 41 45 10 45 10 54 -5 70 -9 10 -29 18 -45 18 -18 0 -27 4 -23 10
7 11 61 7 72 -4 8 -8 32 26 33 45 0 9 -11 24 -24 33 -14 8 -27 25 -31 36 -7
23 -35 28 -35 6 0 -26 -30 -26 -56 -1 -31 31 -26 41 26 49 29 5 40 11 40 24 0
10 5 23 12 30 18 18 41 -22 33 -58z m290 -117 c6 -19 4 -23 -14 -23 -14 0 -23
-8 -27 -25 -7 -27 -23 -32 -41 -14 -15 15 -43 4 -43 -15 0 -8 12 -28 26 -45
24 -29 21 -44 -4 -19 -8 8 -12 9 -12 1 0 -17 -57 14 -65 35 -3 9 -2 18 4 20 5
2 7 10 4 18 -3 9 2 14 16 14 22 0 46 30 56 70 4 18 0 32 -15 48 -11 12 -18 22
-14 22 3 0 1 7 -6 15 -11 13 -8 15 14 15 16 0 26 -5 26 -15 0 -8 5 -14 12 -12
6 1 17 -8 23 -21 12 -22 13 -21 26 30 l13 53 7 -65 c4 -36 10 -75 14 -87z
m-636 76 c-7 -14 -14 -18 -21 -11 -13 13 -2 32 18 32 12 0 13 -4 3 -21z m-375
-56 c3 -10 8 -35 12 -56 5 -30 4 -36 -9 -32 -16 7 -37 47 -37 74 0 33 25 43
34 14z m8238 -88 c0 -5 -5 -11 -11 -13 -6 -2 -11 4 -11 13 0 9 5 15 11 13 6
-2 11 -8 11 -13z m-5092 -25 c0 -5 -4 -10 -10 -10 -5 0 -10 5 -10 10 0 6 5 10
10 10 6 0 10 -4 10 -10z m-2692 -13 c7 -8 6 -18 -4 -32 -13 -17 -16 -18 -24
-5 -23 36 2 69 28 37z m-198 -7 c0 -5 -4 -10 -10 -10 -5 0 -10 5 -10 10 0 6 5
10 10 10 6 0 10 -4 10 -10z m8382 -40 c13 0 9 18 -4 23 -7 2 -10 8 -6 12 15
16 40 -27 43 -77 2 -29 8 -54 13 -56 6 -2 6 -18 1 -40 -5 -20 -9 -58 -9 -84 0
-28 -6 -53 -15 -62 -8 -8 -15 -19 -15 -24 0 -5 -11 -21 -25 -36 -13 -14 -21
-26 -17 -26 4 0 0 -5 -8 -10 -12 -8 -12 -10 -1 -10 10 0 11 -3 2 -14 -10 -12
-16 -12 -39 0 -15 8 -35 14 -44 14 -10 0 -18 5 -18 10 0 9 17 14 48 13 6 -1
12 3 12 8 0 5 -6 9 -14 9 -7 0 -19 7 -27 16 -10 13 -10 17 1 24 8 5 11 13 6
17 -5 4 -11 2 -13 -4 -10 -27 -21 -10 -31 44 -7 44 -7 62 4 78 7 11 18 43 25
70 6 28 17 59 23 70 5 11 9 23 8 27 -1 4 4 5 12 2 9 -3 21 7 32 25 l18 31 15
-25 c9 -14 19 -25 23 -25z m-7809 22 c13 -14 14 -21 5 -30 -21 -21 -48 -14
-48 11 0 40 17 48 43 19z m-773 -32 c0 -13 -7 -20 -20 -20 -13 0 -20 7 -20 20
0 13 7 20 20 20 13 0 20 -7 20 -20z m8470 -10 c0 -5 -4 -10 -10 -10 -5 0 -10
5 -10 10 0 6 5 10 10 10 6 0 10 -4 10 -10z m-7460 -45 c0 -8 -7 -15 -15 -15
-16 0 -20 12 -8 23 11 12 23 8 23 -8z m2218 -18 c6 -5 12 -19 12 -31 0 -12 5
-27 11 -33 6 -6 12 -31 14 -54 1 -24 9 -57 16 -72 11 -24 17 -27 42 -21 25 5
29 4 24 -10 -4 -10 -1 -19 8 -22 8 -4 13 -10 10 -14 -3 -4 1 -10 9 -13 8 -3
20 -18 28 -34 8 -15 20 -38 28 -49 18 -29 6 -54 -25 -54 -36 0 -68 19 -61 36
6 17 -30 38 -47 27 -6 -4 -41 -10 -77 -13 l-65 -5 0 -60 c-1 -49 -4 -61 -18
-63 -10 -2 -23 1 -30 6 -7 5 -25 12 -41 16 -28 7 -29 8 -23 58 7 57 19 75 50
80 16 2 23 11 25 33 5 48 -41 85 -92 76 -5 -1 -17 6 -28 16 -19 17 -20 17 -34
-2 -8 -10 -14 -22 -14 -26 0 -15 -62 -21 -93 -8 -50 21 -65 41 -54 72 12 37
50 46 144 32 50 -7 52 -7 68 24 9 18 15 41 13 53 -2 11 4 24 12 28 8 3 33 16
55 27 41 21 106 21 133 0z m209 -11 c50 -25 63 -40 63 -76 0 -27 -18 -34 -47
-19 -22 12 -27 11 -37 -4 -15 -19 -26 -12 -26 16 0 10 -7 31 -16 47 -16 27
-14 60 4 60 4 0 31 -11 59 -24z m-807 -2 c0 -9 -7 -14 -17 -12 -25 5 -28 28
-4 28 12 0 21 -6 21 -16z m-1696 -29 c4 -11 20 -15 56 -15 29 0 50 -4 50 -11
0 -7 -19 -9 -57 -5 -32 3 -71 6 -87 6 -16 0 -36 6 -44 13 -13 10 -11 13 14 18
49 11 62 10 68 -6z m-351 -15 c8 -11 12 -32 9 -47 l-5 -27 -24 28 c-26 30 -31
66 -9 66 8 0 21 -9 29 -20z m517 -5 c0 -8 -7 -15 -15 -15 -16 0 -20 12 -8 23
11 12 23 8 23 -8z m1663 -19 c21 -16 22 -26 2 -26 -8 0 -15 -5 -15 -12 0 -8
-6 -6 -16 4 -9 9 -14 24 -11 32 8 19 16 20 40 2z m234 -202 c-3 -3 -12 -4 -19
-1 -8 3 -5 6 6 6 11 1 17 -2 13 -5z m53 -4 c0 -5 -4 -10 -10 -10 -5 0 -10 5
-10 10 0 6 5 10 10 10 6 0 10 -4 10 -10z m4468 -154 c3 -12 -1 -17 -10 -14 -7
3 -15 13 -16 22 -3 12 1 17 10 14 7 -3 15 -13 16 -22z m-5217 -58 c17 -33 69
-76 101 -83 14 -4 52 -1 84 4 75 14 81 14 88 -5 8 -21 -9 -42 -36 -46 -24 -3
-38 -28 -16 -28 13 0 58 -61 58 -80 0 -6 -16 -20 -35 -31 -31 -19 -35 -25 -30
-53 3 -17 1 -38 -4 -46 -9 -13 -15 -13 -46 4 -36 20 -36 20 -96 -2 -32 -12
-66 -19 -74 -16 -8 4 -15 1 -15 -5 0 -16 -21 -13 -42 6 -10 9 -18 11 -18 5 0
-16 -39 -2 -50 19 -6 9 -7 24 -4 32 8 23 97 57 146 57 55 0 69 13 58 51 -10
33 -43 66 -78 75 -12 4 -29 19 -37 33 -9 18 -27 32 -52 39 -21 6 -44 21 -51
32 -11 18 -10 20 12 20 14 0 36 -4 50 -10 21 -8 26 -7 26 7 0 15 27 42 42 43
4 0 13 -10 19 -22z m1317 -54 c19 -13 23 -23 20 -62 -3 -43 -5 -47 -31 -50
-16 -2 -31 -10 -34 -18 -7 -18 -53 -19 -53 -1 0 17 -34 49 -43 41 -3 -3 -13
-1 -23 4 -16 9 -15 10 4 16 12 4 22 12 22 17 0 5 7 9 15 9 8 0 15 5 15 10 0
18 40 50 63 50 12 0 33 -7 45 -16z m-1492 -123 c-3 -9 -8 -28 -12 -43 -8 -35
-17 -35 -43 -2 -26 33 -28 81 -3 86 25 6 63 -21 58 -41z m1273 10 c9 -15 7
-20 -12 -25 -24 -6 -53 16 -43 33 11 18 44 13 55 -8z m-1519 -31 c0 -14 -47
-13 -56 1 -3 6 -1 15 7 19 14 9 49 -5 49 -20z m5620 -50 c0 -5 -4 -10 -10 -10
-5 0 -10 5 -10 10 0 6 5 10 10 10 6 0 10 -4 10 -10z m3080 -72 c0 -5 -7 -3
-15 6 -8 8 -15 18 -15 22 0 3 7 1 15 -6 8 -7 15 -17 15 -22z m-7920 -33 c19
-23 4 -47 -27 -43 -31 3 -44 35 -21 49 19 13 34 11 48 -6z m985 -41 c30 -20
32 -50 5 -84 -11 -14 -20 -41 -20 -61 0 -24 -7 -42 -21 -55 -21 -19 -21 -18
-45 9 -26 31 -29 46 -14 91 5 17 12 48 15 68 4 28 11 38 28 41 12 2 23 5 25 6
1 0 14 -6 27 -15z m-879 -8 c14 -11 16 -18 8 -26 -17 -17 -54 -2 -54 21 0 23
19 25 46 5z m-4101 -25 c8 -17 12 -37 9 -45 -3 -9 -1 -16 5 -16 6 0 11 -16 11
-35 0 -45 -17 -45 -53 0 -20 26 -26 43 -25 72 4 59 29 70 53 24z m4589 -46
c18 -12 29 -13 51 -5 22 8 33 7 51 -5 28 -18 29 -24 11 -50 -13 -17 -24 -18
-77 -4 -10 3 -14 -2 -12 -13 2 -10 -1 -18 -7 -18 -5 0 -12 -15 -16 -32 -9 -47
-26 -90 -43 -110 -9 -11 -12 -28 -9 -47 5 -24 2 -31 -14 -36 -29 -10 -41 7
-41 54 1 32 -5 45 -25 61 -14 11 -37 20 -50 20 -37 0 -85 38 -81 64 2 17 11
22 49 24 40 3 50 -1 67 -22 17 -22 21 -24 32 -11 17 20 4 66 -20 72 -33 9 -24
33 13 33 21 0 36 7 45 20 15 24 44 26 76 5z m7076 -5 c0 -5 -4 -10 -10 -10 -5
0 -10 5 -10 10 0 6 5 10 10 10 6 0 10 -4 10 -10z m-30 -15 c0 -8 -9 -19 -20
-25 -13 -7 -22 -26 -26 -51 -4 -22 -13 -43 -20 -46 -8 -3 -14 -10 -14 -17 0
-18 -77 -89 -89 -81 -6 3 -11 1 -11 -4 0 -6 -10 -11 -21 -11 -17 0 -20 4 -15
23 3 12 6 50 6 84 0 71 17 96 59 90 20 -3 33 3 51 24 19 22 34 28 63 29 26 0
37 -4 37 -15z m-3120 -65 c0 -11 -4 -20 -10 -20 -5 0 -10 9 -10 20 0 11 5 20
10 20 6 0 10 -9 10 -20z m-4283 -38 c7 -5 16 -30 19 -56 7 -50 -2 -66 -38 -66
-19 0 -25 34 -8 45 14 9 13 66 -1 63 -6 -2 -14 3 -16 10 -5 13 25 16 44 4z
m553 -32 c0 -5 -5 -10 -11 -10 -5 0 -7 5 -4 10 3 6 8 10 11 10 2 0 4 -4 4 -10z
m6700 -110 c0 -5 -5 -10 -11 -10 -5 0 -7 5 -4 10 3 6 8 10 11 10 2 0 4 -4 4
-10z m-860 -40 c0 -5 -7 -10 -15 -10 -8 0 -15 5 -15 10 0 6 7 10 15 10 8 0 15
-4 15 -10z m-5952 -97 c2 -13 -1 -23 -6 -23 -6 0 -17 -3 -26 -6 -13 -5 -16 1
-16 26 0 27 3 31 23 28 14 -2 23 -11 25 -25z m-214 -21 c3 -5 -4 -21 -15 -38
-10 -16 -19 -37 -19 -47 0 -11 -13 -32 -30 -47 l-30 -28 -25 26 c-17 17 -25
34 -23 51 3 22 8 26 36 26 28 0 32 3 28 19 -3 11 0 26 6 33 12 14 64 18 72 5z
m208 -42 c5 0 8 -10 6 -22 -2 -19 -14 -25 -60 -37 -32 -7 -66 -10 -75 -6 -16
6 -13 10 16 35 34 29 64 40 89 34 8 -2 18 -4 24 -4z m-3872 -46 c0 -16 -23
-44 -35 -44 -18 0 -20 21 -3 38 12 12 38 17 38 6z m7789 -53 c25 -5 51 -17 58
-27 16 -21 17 -84 2 -84 -7 0 -8 -18 -4 -52 6 -51 5 -54 -23 -70 -37 -22 -98
-24 -106 -3 -3 8 -13 15 -22 15 -13 0 -15 6 -10 31 3 17 6 39 6 49 0 10 9 20
20 23 26 7 26 27 -1 27 -26 0 -46 20 -55 55 -11 44 32 56 135 36z m-4309 -11
c0 -5 -4 -10 -10 -10 -5 0 -10 -11 -10 -25 0 -33 -36 -53 -58 -32 -19 20 -10
42 25 60 34 18 53 20 53 7z m305 -39 c3 -5 -9 -20 -27 -32 -18 -12 -50 -40
-70 -61 -38 -40 -58 -43 -58 -8 0 12 23 38 58 65 55 44 85 55 97 36z m-614
-44 c-1 -12 -15 -9 -19 4 -3 6 1 10 8 8 6 -3 11 -8 11 -12z m-3636 -217 c3 -5
-3 -10 -15 -10 -12 0 -18 5 -15 10 3 6 10 10 15 10 5 0 12 -4 15 -10z m9235
-265 c0 -9 -9 -15 -25 -15 -22 0 -24 2 -13 15 17 19 38 19 38 0z"/>
<path d="M311 6214 c0 -11 3 -14 6 -6 3 7 2 16 -1 19 -3 4 -6 -2 -5 -13z"/>
<path d="M472 6100 c0 -14 2 -19 5 -12 2 6 2 18 0 25 -3 6 -5 1 -5 -13z"/>
<path d="M4170 5493 c0 -15 19 -37 26 -31 3 4 -1 14 -10 23 -9 9 -16 13 -16 8z"/>
<path d="M1964 3906 c-7 -31 11 -88 34 -110 28 -25 113 -11 147 24 33 35 25
57 -29 70 -22 6 -59 17 -81 25 -55 20 -64 19 -71 -9z"/>
<path d="M930 3870 c0 -5 5 -10 10 -10 6 0 10 5 10 10 0 6 -4 10 -10 10 -5 0
-10 -4 -10 -10z"/>
<path d="M2575 3870 c-3 -5 1 -10 9 -10 9 0 16 5 16 10 0 6 -4 10 -9 10 -6 0
-13 -4 -16 -10z"/>
<path d="M2941 3451 c-23 -6 -21 -9 32 -44 31 -21 58 -41 61 -46 3 -5 17 -6
31 -3 22 4 25 10 25 43 0 33 -4 41 -26 49 -28 11 -86 12 -123 1z"/>
<path d="M2732 3421 c-10 -6 -9 -10 7 -14 12 -3 21 -1 21 3 0 5 8 11 18 13 11
3 9 5 -8 6 -14 0 -31 -3 -38 -8z"/>
<path d="M5541 3216 c-9 -10 -9 -16 -1 -21 17 -10 37 12 24 25 -8 8 -15 6 -23
-4z"/>
<path d="M5310 3196 c0 -9 5 -16 10 -16 6 0 10 4 10 9 0 6 -4 13 -10 16 -5 3
-10 -1 -10 -9z"/>
<path d="M5205 3141 c6 -11 3 -13 -16 -8 -20 5 -22 4 -8 -6 8 -7 20 -21 26
-31 10 -18 11 -18 18 3 5 16 2 28 -10 40 -12 10 -15 11 -10 2z"/>
<path d="M5372 3095 c-11 -12 -10 -15 3 -15 8 0 15 7 15 15 0 18 -2 18 -18 0z"/>
<path d="M5552 3048 c-15 -18 -11 -56 5 -63 8 -2 19 6 25 21 9 20 9 28 -4 40
-12 12 -17 13 -26 2z"/>
<path d="M5370 2880 c-12 -8 -11 -10 8 -10 12 0 22 5 22 10 0 13 -11 13 -30 0z"/>
<path d="M14430 3450 c0 -5 5 -10 10 -10 6 0 10 5 10 10 0 6 -4 10 -10 10 -5
0 -10 -4 -10 -10z"/>
<path d="M12890 2470 c0 -5 5 -10 11 -10 5 0 7 5 4 10 -3 6 -8 10 -11 10 -2 0
-4 -4 -4 -10z"/>
<path d="M13090 2399 c0 -5 5 -7 10 -4 6 3 10 8 10 11 0 2 -4 4 -10 4 -5 0
-10 -5 -10 -11z"/>
<path d="M13230 300 c0 -5 7 -10 15 -10 8 0 15 5 15 10 0 6 -7 10 -15 10 -8 0
-15 -4 -15 -10z"/>
<path d="M13350 180 c0 -5 5 -10 11 -10 5 0 7 5 4 10 -3 6 -8 10 -11 10 -2 0
-4 -4 -4 -10z"/>
<path d="M5990 2976 c0 -11 -8 -25 -17 -33 -17 -12 -16 -13 7 -11 27 3 39 33
21 51 -8 8 -11 6 -11 -7z"/>
<path d="M6040 2962 c0 -12 4 -22 9 -22 10 0 9 26 -2 36 -4 4 -7 -2 -7 -14z"/>
<path d="M14028 7606 c-29 -39 -32 -70 -9 -90 11 -10 27 -16 35 -13 8 3 26 -3
41 -15 36 -28 42 -16 22 41 -9 27 -17 56 -17 65 0 9 -8 16 -18 16 -10 0 -22 4
-27 9 -6 6 -16 1 -27 -13z"/>
<path d="M14756 7121 c-3 -5 1 -12 10 -15 21 -8 65 4 58 15 -7 12 -61 12 -68
0z"/>
<path d="M14148 6983 c7 -3 16 -2 19 1 4 3 -2 6 -13 5 -11 0 -14 -3 -6 -6z"/>
<path d="M14730 6896 c0 -2 7 -6 15 -10 8 -3 15 -1 15 4 0 6 -7 10 -15 10 -8
0 -15 -2 -15 -4z"/>
<path d="M13185 6833 c-11 -8 -47 -28 -81 -44 -102 -49 -126 -99 -40 -84 22 4
73 8 111 9 63 3 70 5 73 25 4 26 -15 86 -31 99 -8 7 -18 6 -32 -5z"/>
<path d="M12697 6814 c-15 -14 -25 -29 -22 -33 6 -10 93 -2 118 11 9 5 17 16
17 26 0 30 -80 27 -113 -4z"/>
<path d="M12889 6799 c-61 -65 -6 -110 59 -48 41 38 41 72 -1 77 -21 3 -35 -5
-58 -29z"/>
<path d="M14546 6822 c-11 -2 -30 -14 -44 -27 l-25 -23 25 -16 c31 -20 107
-42 175 -51 29 -4 55 -11 59 -16 3 -5 0 -9 -5 -9 -6 0 -11 -9 -11 -20 0 -13 5
-18 15 -14 9 4 40 3 70 -1 45 -5 55 -10 55 -26 0 -16 7 -19 43 -18 60 2 100
12 105 27 2 6 -3 12 -12 12 -9 0 -16 8 -16 19 0 18 15 27 69 40 13 3 26 12 29
19 3 9 -12 12 -53 12 -31 0 -65 5 -76 10 -13 7 -25 8 -37 1 -9 -6 -11 -11 -4
-11 21 0 13 -14 -15 -27 -17 -8 -30 -9 -38 -3 -6 5 -20 7 -32 4 -11 -3 -24 -1
-27 5 -4 6 0 11 8 11 9 0 16 9 16 20 0 14 -7 20 -21 20 -11 0 -30 5 -42 12
-12 7 -44 15 -72 19 -27 3 -66 13 -85 21 -19 8 -44 13 -54 10z"/>
<path d="M13303 6784 c-3 -8 -2 -19 3 -24 10 -10 174 -1 174 9 0 7 -117 31
-150 31 -11 0 -23 -7 -27 -16z"/>
<path d="M13560 6770 c0 -5 5 -21 12 -35 12 -26 36 -29 30 -4 -3 11 -1 12 9 2
19 -19 24 -16 25 17 1 28 -1 30 -37 30 -22 0 -39 -4 -39 -10z"/>
<path d="M12366 6686 c-27 -23 -45 -31 -62 -28 -17 3 -24 0 -24 -11 0 -12 7
-13 40 -6 23 5 53 8 68 7 50 -4 68 24 35 55 -17 14 -21 13 -57 -17z"/>
<path d="M12705 6687 c-77 -31 -115 -50 -115 -58 0 -23 68 -11 126 22 28 16
60 29 70 30 18 0 18 1 -1 9 -27 12 -45 11 -80 -3z"/>
<path d="M15208 6684 c-12 -4 -18 -15 -18 -35 0 -22 -5 -29 -19 -29 -10 0 -24
-7 -31 -15 -7 -8 -19 -15 -26 -15 -8 0 -14 -4 -14 -9 0 -12 206 -6 240 7 14 5
39 7 56 5 41 -6 129 34 111 51 -6 7 -59 18 -117 25 -148 19 -163 20 -182 15z"/>
<path d="M12571 6625 c-1 -6 -13 -11 -28 -10 -29 0 -43 -22 -19 -31 21 -8 86
4 86 16 0 6 -6 10 -14 10 -8 0 -17 6 -19 13 -3 6 -6 7 -6 2z"/>
<path d="M13556 6621 c-3 -4 6 -6 19 -3 14 2 25 6 25 8 0 8 -39 4 -44 -5z"/>
<path d="M11400 6320 c8 -5 11 -10 5 -11 -37 -5 -75 -21 -75 -31 0 -6 -6 -6
-14 1 -12 10 -13 8 -7 -16 4 -15 10 -27 14 -25 4 1 14 2 22 2 8 0 15 6 15 14
0 15 57 39 71 30 10 -6 12 7 3 30 -3 9 -16 16 -28 16 -17 0 -18 -2 -6 -10z"/>
<path d="M11405 6260 c-3 -5 -2 -10 4 -10 5 0 13 5 16 10 3 6 2 10 -4 10 -5 0
-13 -4 -16 -10z"/>
<path d="M11346 6191 c-20 -8 -20 -8 0 -13 24 -6 46 1 38 13 -6 10 -12 10 -38
0z"/>
<path d="M10760 5969 c0 -5 5 -7 10 -4 6 3 10 8 10 11 0 2 -4 4 -10 4 -5 0
-10 -5 -10 -11z"/>
<path d="M10336 5895 c-11 -8 -15 -15 -10 -15 6 0 19 7 30 15 10 8 15 14 9 14
-5 0 -19 -6 -29 -14z"/>
<path d="M10425 5860 c3 -5 11 -10 16 -10 6 0 7 5 4 10 -3 6 -11 10 -16 10 -6
0 -7 -4 -4 -10z"/>
<path d="M10416 5839 c3 -5 -4 -9 -15 -9 -12 0 -21 -5 -21 -11 0 -5 -4 -8 -9
-5 -5 3 -14 -1 -21 -9 -10 -12 -9 -15 8 -15 11 0 27 7 36 15 8 8 24 15 35 15
27 0 27 16 1 23 -11 3 -18 1 -14 -4z"/>
<path d="M7492 5798 c-17 -17 -15 -29 3 -22 8 4 13 10 10 14 -3 5 1 11 7 13 7
3 8 6 3 6 -6 1 -16 -4 -23 -11z"/>
<path d="M10168 5793 c-21 -5 -23 -19 -6 -29 7 -4 8 -3 4 4 -4 7 -1 12 8 12 9
0 16 5 16 10 0 6 -1 9 -2 9 -2 -1 -11 -3 -20 -6z"/>
<path d="M10460 5770 c-38 -12 -87 -40 -70 -40 8 0 33 5 55 12 22 6 43 11 48
10 4 -1 7 5 7 13 0 17 -3 17 -40 5z"/>
<path d="M10070 5720 c-13 -9 -13 -10 0 -9 8 0 24 4 35 9 l20 9 -20 0 c-11 0
-27 -4 -35 -9z"/>
<path d="M10230 5630 c-9 -6 -10 -10 -3 -10 6 0 15 5 18 10 8 12 4 12 -15 0z"/>
<path d="M10125 5599 c-20 -21 -19 -24 5 -26 11 -1 20 2 20 8 0 5 9 9 20 9 11
0 20 7 20 15 0 20 -46 16 -65 -6z"/>
<path d="M10007 5583 c-4 -3 -7 -11 -7 -17 0 -6 5 -5 12 2 6 6 9 14 7 17 -3 3
-9 2 -12 -2z"/>
<path d="M9944 5565 c-18 -14 -17 -15 7 -6 15 5 30 7 35 3 4 -4 4 -1 0 6 -9
16 -18 15 -42 -3z"/>
<path d="M9888 5553 c7 -3 16 -2 19 1 4 3 -2 6 -13 5 -11 0 -14 -3 -6 -6z"/>
<path d="M9955 5530 c-3 -5 -1 -10 4 -10 6 0 11 5 11 10 0 6 -2 10 -4 10 -3 0
-8 -4 -11 -10z"/>
<path d="M9758 5504 c-16 -8 -28 -17 -28 -19 0 -11 27 -3 50 15 29 23 17 26
-22 4z"/>
<path d="M9942 5479 c-13 -5 -27 -7 -32 -4 -4 3 -13 -2 -19 -9 -7 -8 -8 -16
-4 -19 11 -7 83 23 83 34 0 5 -1 9 -2 8 -2 0 -14 -4 -26 -10z"/>
<path d="M9663 5467 c-30 -11 -93 -71 -93 -89 0 -12 18 -10 25 2 5 8 11 7 21
-1 11 -9 18 -9 26 -1 9 9 8 12 -5 12 -9 0 -17 3 -17 8 0 12 50 55 57 48 7 -7
33 12 33 25 0 11 -7 10 -47 -4z"/>
<path d="M7476 5441 c-4 -7 -5 -15 -2 -18 9 -9 19 4 14 18 -4 11 -6 11 -12 0z"/>
<path d="M9700 5435 c-7 -8 -16 -13 -20 -10 -15 9 -20 -12 -6 -24 11 -9 20 -7
42 12 22 19 24 25 11 30 -8 3 -21 -1 -27 -8z"/>
<path d="M9514 5422 c3 -5 -12 -19 -34 -31 -25 -14 -41 -18 -45 -11 -5 8 -12
7 -23 -2 -13 -11 -15 -11 -10 3 5 12 -5 10 -44 -10 -28 -14 -53 -33 -55 -42
-3 -9 -15 -16 -28 -16 -13 0 -36 -9 -52 -20 -15 -11 -48 -23 -73 -26 -24 -3
-49 -13 -56 -21 -6 -9 -25 -19 -43 -22 -48 -10 -38 -27 12 -19 23 4 39 4 35 0
-4 -4 1 -16 12 -27 10 -11 20 -30 23 -43 3 -21 1 -23 -14 -15 -9 6 -20 15 -22
22 -4 8 -6 7 -6 -4 -1 -25 -39 -33 -61 -13 -13 12 -27 15 -45 11 -24 -6 -26
-5 -20 16 7 23 7 23 -18 -2 -37 -37 -38 -61 -3 -71 18 -5 35 -4 42 2 8 7 14 7
19 -1 10 -16 65 -13 59 4 -4 10 4 13 30 12 43 -1 44 -3 10 -17 -37 -13 -27
-19 24 -12 29 4 42 10 42 22 0 9 7 25 15 35 15 19 15 19 15 -2 0 -26 15 -29
24 -6 5 12 14 15 36 10 33 -6 41 9 10 19 -27 9 -25 41 6 82 14 18 20 33 14 33
-6 0 -18 7 -26 15 -9 8 -12 15 -7 15 5 0 14 -5 19 -10 7 -7 23 -5 49 6 27 11
40 13 43 5 2 -6 8 -11 13 -11 4 0 6 6 3 13 -3 8 12 20 37 31 24 11 56 31 72
45 16 14 33 25 38 24 5 -2 9 6 9 17 0 11 -7 20 -16 20 -8 0 -13 -4 -10 -8z
m-98 -73 c-21 -13 -86 -30 -86 -23 0 16 28 29 64 31 35 2 38 1 22 -8z m-253
-129 c4 -15 0 -20 -14 -20 -10 0 -19 5 -19 11 0 5 -4 7 -10 4 -5 -3 -10 1 -10
9 0 24 46 21 53 -4z"/>
<path d="M5716 5404 c-4 -9 -4 -31 0 -49 5 -28 1 -38 -30 -69 -31 -31 -43 -36
-84 -37 -61 -1 -28 -17 38 -18 66 -2 166 -28 222 -58 27 -15 90 -64 139 -110
112 -103 152 -132 260 -186 83 -42 88 -43 140 -35 30 5 64 9 77 10 17 0 22 6
22 25 0 19 -4 24 -15 19 -9 -3 -35 1 -58 9 -23 8 -44 11 -47 7 -36 -53 -40
-56 -52 -44 -7 7 -11 28 -9 47 3 38 -14 48 -24 15 -8 -26 -16 -25 -49 5 -14
13 -33 22 -41 19 -10 -4 -15 0 -15 15 0 13 -12 26 -32 37 -59 30 -129 86 -139
111 -5 13 -13 22 -17 19 -13 -8 -52 23 -52 42 0 24 -129 140 -160 144 -18 2
-25 9 -24 25 0 12 -3 20 -6 18 -4 -2 -16 3 -26 11 -17 14 -17 15 -1 10 20 -6
23 7 3 23 -11 9 -15 8 -20 -5z"/>
<path d="M9445 5410 c-19 -7 -19 -8 -2 -15 12 -5 24 -2 35 9 13 13 14 16 2 15
-8 0 -24 -4 -35 -9z"/>
<path d="M8658 5383 c-1 -15 -2 -36 -1 -45 0 -10 -5 -18 -12 -18 -6 0 -16 -13
-22 -30 -13 -35 3 -42 30 -12 20 22 34 117 18 126 -7 5 -12 -3 -13 -21z"/>
<path d="M8592 5365 c-28 -31 -30 -37 -19 -64 6 -17 12 -29 12 -28 44 80 62
127 51 127 -8 0 -28 -16 -44 -35z"/>
<path d="M8418 5355 c-3 -14 -1 -28 3 -31 5 -3 9 -16 9 -30 0 -27 21 -32 40
-9 15 18 6 46 -24 74 l-23 22 -5 -26z m42 -61 c0 -8 -4 -12 -10 -9 -5 3 -10
10 -10 16 0 5 5 9 10 9 6 0 10 -7 10 -16z"/>
<path d="M9517 5345 c-37 -26 -45 -39 -27 -50 5 -3 7 -12 3 -20 -6 -18 16 -19
38 -2 12 10 13 16 4 34 -7 13 -14 22 -16 20 -2 -1 -1 2 2 7 11 13 29 -3 22
-19 -8 -22 10 -18 43 10 26 23 24 31 -8 26 -5 0 -8 4 -8 9 0 16 -12 12 -53
-15z"/>
<path d="M8516 5325 c-6 -17 30 -85 46 -85 5 0 0 12 -11 26 -14 18 -19 34 -15
50 7 26 -10 34 -20 9z"/>
<path d="M8690 5328 c0 -30 23 -69 39 -66 23 5 21 53 -2 53 -10 0 -22 7 -27
15 -8 13 -10 13 -10 -2z"/>
<path d="M9420 5310 c-13 -8 -13 -10 2 -10 9 0 20 5 23 10 8 13 -5 13 -25 0z"/>
<path d="M9458 5303 c-1 -5 -24 -27 -50 -50 -36 -32 -51 -40 -70 -36 -22 6
-22 6 -5 -12 14 -13 21 -15 30 -6 14 14 30 15 22 1 -3 -5 1 -10 9 -10 9 0 16
8 16 19 0 20 32 39 38 22 5 -15 32 14 32 33 0 9 -4 16 -10 16 -5 0 -7 7 -4 15
6 15 -1 22 -8 8z m12 -42 c0 -6 -4 -13 -10 -16 -5 -3 -10 1 -10 9 0 9 5 16 10
16 6 0 10 -4 10 -9z"/>
<path d="M8477 5259 c-4 -16 -3 -18 9 -8 16 13 19 29 5 29 -5 0 -11 -9 -14
-21z"/>
<path d="M9371 5261 c-7 -5 -12 -14 -10 -20 3 -6 9 -7 18 -2 7 5 12 14 10 20
-3 6 -9 7 -18 2z"/>
<path d="M8490 5239 c-14 -25 -3 -41 11 -16 6 10 15 14 22 10 7 -4 6 0 -2 10
-17 21 -18 21 -31 -4z"/>
<path d="M8061 5232 c-1 -7 -5 -11 -9 -8 -4 2 -9 -5 -9 -16 -2 -19 -1 -20 14
-6 8 9 13 22 10 30 -4 10 -6 10 -6 0z"/>
<path d="M8820 5206 c0 -8 4 -17 9 -20 5 -4 7 3 4 14 -6 23 -13 26 -13 6z"/>
<path d="M8980 5200 c-8 -5 -11 -12 -7 -16 4 -4 13 -2 19 4 15 15 7 24 -12 12z"/>
<path d="M5960 5170 c0 -5 5 -10 11 -10 5 0 7 5 4 10 -3 6 -8 10 -11 10 -2 0
-4 -4 -4 -10z"/>
<path d="M8710 5175 c0 -5 5 -17 10 -25 7 -11 10 -11 10 -2 0 10 7 9 29 -4 17
-10 27 -22 24 -28 -4 -5 1 -7 10 -3 11 4 17 1 17 -8 0 -8 -5 -15 -11 -15 -6 0
-8 -9 -4 -22 7 -22 6 -22 -7 -4 -11 13 -17 16 -22 7 -4 -6 -12 -9 -17 -6 -5 3
-6 -1 -3 -10 5 -11 10 -13 17 -6 7 7 15 7 24 0 10 -9 15 -5 24 17 6 16 12 36
14 44 1 8 8 14 14 13 17 -4 13 14 -5 21 -9 3 -12 11 -8 18 4 7 4 10 -1 6 -4
-4 -16 -3 -26 2 -12 7 -20 7 -24 0 -5 -8 -11 -8 -20 0 -10 8 -15 8 -20 -1 -6
-8 -10 -7 -16 2 -5 8 -9 10 -9 4z m100 -35 c13 -9 13 -10 0 -10 -8 0 -22 5
-30 10 -13 9 -13 10 0 10 8 0 22 -5 30 -10z"/>
<path d="M9028 5172 c-26 -5 -22 -19 7 -26 27 -7 45 -1 45 13 0 11 -30 18 -52
13z"/>
<path d="M5508 5163 c7 -3 16 -2 19 1 4 3 -2 6 -13 5 -11 0 -14 -3 -6 -6z"/>
<path d="M7941 5154 c0 -11 3 -14 6 -6 3 7 2 16 -1 19 -3 4 -6 -2 -5 -13z"/>
<path d="M5553 5153 c9 -2 25 -2 35 0 9 3 1 5 -18 5 -19 0 -27 -2 -17 -5z"/>
<path d="M5725 5130 c3 -5 11 -10 16 -10 6 0 7 5 4 10 -3 6 -11 10 -16 10 -6
0 -7 -4 -4 -10z"/>
<path d="M8557 5071 c2 -10 12 -18 21 -17 10 0 16 -5 14 -14 -3 -12 -1 -13 10
-2 11 11 9 17 -11 33 -29 24 -40 24 -34 0z"/>
<path d="M7270 5070 c0 -5 13 -24 29 -42 l28 -31 5 26 c4 20 0 28 -13 32 -11
4 -19 11 -19 16 0 5 -7 9 -15 9 -8 0 -15 -4 -15 -10z"/>
<path d="M8370 5051 c0 -4 6 -13 13 -21 10 -12 9 -12 -4 -2 -26 20 -50 5 -43
-27 10 -38 24 -62 34 -56 8 5 19 -18 25 -54 1 -9 -2 -25 -7 -35 -8 -15 -7 -18
5 -13 9 3 18 -1 21 -9 3 -8 10 -14 17 -14 6 0 9 6 6 14 -4 10 0 12 14 9 11 -3
19 0 19 6 0 7 -6 9 -12 5 -8 -4 -10 -3 -5 2 5 5 13 10 18 10 5 1 12 2 16 3 4
0 -2 8 -13 16 -18 13 -17 14 9 9 18 -3 26 -1 22 6 -3 5 -1 10 4 10 6 0 11 -7
11 -15 0 -8 4 -15 8 -15 4 0 8 -9 9 -20 1 -11 -2 -18 -6 -15 -5 2 -11 -8 -14
-23 -3 -15 -1 -30 5 -33 15 -9 -19 -19 -39 -12 -16 6 -16 5 -4 -11 15 -18 63
-46 80 -46 6 0 8 7 5 15 -4 10 0 15 12 15 15 1 13 4 -8 16 -29 15 -39 30 -14
21 8 -3 31 -1 52 5 28 7 34 12 23 19 -10 6 -10 9 -1 9 18 0 15 38 -5 49 -10 5
-15 13 -11 16 4 4 16 -2 28 -13 17 -16 20 -24 11 -40 -6 -11 -7 -22 -3 -26 3
-4 0 -11 -7 -15 -9 -6 -10 -11 -2 -15 6 -4 13 4 17 19 3 14 13 25 21 25 13 0
13 2 2 17 -13 15 -12 15 8 5 30 -17 36 -15 30 8 -3 10 -2 19 2 18 3 -1 20 5
36 15 17 9 24 16 18 17 -7 0 -13 4 -13 10 0 5 7 7 15 4 8 -4 15 -2 15 4 0 6
-6 13 -12 15 -8 4 -7 6 4 6 33 2 11 34 -35 51 -45 17 -46 17 -61 -4 -14 -18
-15 -18 -9 -2 5 15 3 18 -10 13 -9 -3 -17 -2 -17 3 0 5 -7 7 -15 4 -35 -14 33
-65 78 -58 9 1 17 -2 17 -8 0 -6 6 -5 15 2 13 11 14 10 9 -4 -4 -11 -12 -15
-23 -11 -18 8 -56 16 -86 20 -11 1 -19 7 -18 13 1 5 -4 13 -13 16 -8 3 -13 2
-9 -3 3 -5 -1 -11 -7 -14 -9 -3 -7 -10 7 -21 18 -14 18 -15 2 -16 -10 0 -20 7
-23 15 -9 22 -26 6 -18 -17 5 -16 3 -18 -7 -12 -17 10 -38 15 -64 15 -19 0
-19 1 -2 10 10 6 25 8 33 5 8 -3 14 -1 14 4 0 6 -4 10 -10 10 -5 0 -6 8 -3 17
5 12 2 15 -10 10 -11 -4 -14 -2 -10 8 3 8 9 12 14 9 5 -3 9 2 9 11 0 11 -5 15
-14 12 -11 -4 -13 -1 -9 10 4 11 2 14 -5 9 -6 -4 -21 -1 -32 6 -17 11 -22 11
-30 -2 -7 -11 -10 -11 -10 -2 0 7 -4 10 -10 7 -5 -3 -10 -2 -10 2 0 5 -9 9
-20 10 -11 1 -20 -2 -20 -6z m110 -91 c0 -5 -9 -6 -20 -3 -11 3 -17 9 -15 14
7 10 35 1 35 -11z m285 10 c3 -5 1 -10 -4 -10 -6 0 -11 5 -11 10 0 6 2 10 4
10 3 0 8 -4 11 -10z m-337 -37 c0 -12 -4 -20 -9 -17 -5 3 -9 11 -9 19 0 7 -6
15 -12 18 -7 3 -3 5 8 4 15 -1 22 -8 22 -24z m147 -63 c3 -5 1 -10 -4 -10 -6
0 -11 5 -11 10 0 6 2 10 4 10 3 0 8 -4 11 -10z m-20 -60 c3 -6 -1 -7 -9 -4
-18 7 -21 14 -7 14 6 0 13 -4 16 -10z"/>
<path d="M8925 5027 c-19 -7 -25 -16 -25 -38 0 -30 30 -54 38 -31 8 24 24 12
18 -13 -8 -31 18 -46 37 -22 7 8 21 17 32 20 17 4 16 5 -4 6 -24 1 -24 1 -5
16 22 17 3 21 -26 5 -13 -7 -21 -6 -30 5 -9 11 -9 15 -1 15 6 0 11 7 11 15 0
19 16 20 23 1 8 -21 57 -9 57 14 0 11 -95 17 -125 7z m65 -77 c0 -5 -5 -10
-11 -10 -5 0 -7 5 -4 10 3 6 8 10 11 10 2 0 4 -4 4 -10z"/>
<path d="M9065 5011 c-3 -6 4 -15 15 -21 16 -8 24 -8 35 4 9 8 11 17 6 21 -5
3 -12 1 -16 -5 -3 -5 -11 -10 -16 -10 -6 0 -7 5 -4 10 3 6 2 10 -4 10 -5 0
-12 -4 -16 -9z"/>
<path d="M8224 4991 c4 -5 0 -13 -7 -18 -8 -4 -22 -23 -31 -41 -13 -25 -14
-33 -4 -37 7 -2 39 -14 70 -25 46 -17 60 -19 71 -9 21 20 -22 95 -68 120 -20
11 -34 16 -31 10z m6 -61 c0 -11 -4 -20 -9 -20 -5 0 -7 9 -4 20 3 11 7 20 9
20 2 0 4 -9 4 -20z m47 4 c-3 -3 -12 -4 -19 -1 -8 3 -5 6 6 6 11 1 17 -2 13
-5z m26 -21 c4 -3 -1 -12 -11 -20 -9 -8 -11 -11 -3 -7 9 5 12 3 7 -5 -10 -16
-26 -4 -26 20 0 18 20 26 33 12z"/>
<path d="M7949 4902 c10 -7 10 -11 1 -14 -18 -6 9 -48 31 -48 9 0 24 -10 35
-21 14 -16 15 -21 4 -17 -8 2 -25 -1 -38 -8 -20 -10 -27 -9 -43 7 -11 11 -17
24 -14 29 4 6 -6 10 -20 10 -14 0 -24 -4 -21 -9 3 -4 1 -22 -3 -39 -11 -35 3
-46 47 -36 20 5 24 4 17 -5 -6 -6 -27 -12 -47 -13 -33 -3 -35 -5 -27 -27 14
-36 3 -59 -26 -53 -36 6 -40 20 -16 46 l21 22 -45 -3 c-39 -3 -45 -1 -45 16 0
17 5 20 30 15 28 -6 30 -5 30 24 0 17 -4 33 -9 36 -5 3 -31 -1 -59 -9 -42 -13
-49 -19 -49 -39 0 -14 6 -27 13 -30 8 -3 14 -13 14 -23 0 -13 -9 -7 -35 20
-19 20 -37 37 -40 37 -11 0 -4 -19 12 -36 10 -9 18 -27 18 -39 1 -12 9 -32 18
-45 9 -14 17 -36 17 -51 0 -24 15 -39 41 -39 20 0 7 20 -13 21 -13 0 -17 3
-10 6 6 2 12 12 12 21 0 13 4 11 20 -6 12 -12 25 -22 31 -22 6 0 7 -4 4 -10
-3 -5 4 -10 15 -10 16 0 20 -4 16 -16 -3 -9 -6 -27 -6 -40 0 -13 -6 -24 -13
-24 -8 0 -22 -9 -32 -20 -15 -17 -16 -20 -3 -20 24 0 70 41 64 57 -3 8 0 21 7
28 6 8 18 21 25 30 7 8 18 13 23 9 6 -4 2 -16 -12 -30 l-22 -23 39 19 c21 11
53 20 71 20 27 0 35 5 44 27 5 14 7 33 4 42 -3 8 -3 12 1 8 4 -4 13 -2 21 4 7
6 13 8 14 3 0 -5 6 7 13 26 7 19 21 37 30 38 16 3 15 0 -4 -26 -21 -29 -30
-88 -15 -111 3 -6 20 -9 38 -7 26 3 32 8 34 27 0 13 2 29 3 34 1 6 2 14 1 19
-1 4 6 14 16 22 16 12 17 13 1 14 -23 0 -34 20 -17 30 9 6 6 10 -12 15 -18 4
-25 13 -25 28 1 17 -5 22 -24 21 -14 0 -36 -4 -49 -8 -16 -6 -21 -5 -17 3 4 6
1 9 -7 5 -8 -3 -20 3 -28 12 -12 15 -12 16 7 10 15 -4 24 -2 28 9 3 8 13 15
22 15 10 0 14 5 10 15 -9 23 3 18 30 -14 31 -37 60 -45 61 -17 1 12 -1 15 -4
9 -3 -7 -9 -13 -14 -13 -6 0 -9 6 -8 13 3 28 -2 39 -17 33 -8 -3 -13 -2 -10 3
3 4 -19 17 -49 29 -44 16 -55 17 -55 6 0 -23 -18 -16 -22 8 -2 14 -11 24 -23
26 -15 2 -17 1 -6 -6z m76 -42 c3 -5 1 -10 -4 -10 -6 0 -11 5 -11 10 0 6 2 10
4 10 3 0 8 -4 11 -10z m-107 -68 c6 -18 -15 -14 -22 4 -4 10 -1 14 6 12 6 -2
14 -10 16 -16z m70 -51 c3 -8 -1 -12 -9 -9 -7 2 -15 10 -17 17 -3 8 1 12 9 9
7 -2 15 -10 17 -17z m72 -42 c0 -11 -3 -11 -24 -3 -23 9 -20 23 4 17 11 -3 20
-9 20 -14z m-293 -16 c5 18 33 24 33 7 0 -5 -4 -10 -10 -10 -21 0 -9 -16 20
-27 29 -11 43 -43 19 -43 -18 0 -89 73 -88 90 0 8 5 4 11 -10 9 -21 12 -22 15
-7z m273 -35 c0 -5 -9 -8 -19 -8 -11 0 -34 -12 -51 -26 -29 -25 -33 -26 -48
-11 -15 15 -18 14 -42 -15 -16 -19 -31 -28 -38 -24 -16 10 -15 36 1 36 8 0 25
13 39 28 23 27 31 29 92 28 36 -1 66 -4 66 -8z"/>
<path d="M8893 4888 c0 -13 1 -18 4 -11 2 7 12 9 21 6 15 -6 15 -5 3 10 -18
23 -27 21 -28 -5z"/>
<path d="M6544 4879 c-10 -17 13 -36 27 -22 12 12 4 33 -11 33 -5 0 -12 -5
-16 -11z"/>
<path d="M6630 4864 c0 -7 27 -34 34 -34 13 0 5 28 -10 34 -19 7 -24 8 -24 0z"/>
<path d="M7380 4845 c0 -8 2 -15 4 -15 2 0 6 7 10 15 3 8 1 15 -4 15 -6 0 -10
-7 -10 -15z"/>
<path d="M7490 4850 c0 -5 9 -10 21 -10 11 0 17 5 14 10 -3 6 -13 10 -21 10
-8 0 -14 -4 -14 -10z"/>
<path d="M8330 4849 c0 -5 5 -7 10 -4 6 3 10 8 10 11 0 2 -4 4 -10 4 -5 0 -10
-5 -10 -11z"/>
<path d="M7570 4846 c0 -2 9 -6 20 -9 11 -3 18 -1 14 4 -5 9 -34 13 -34 5z"/>
<path d="M7748 4833 c6 -2 18 -2 25 0 6 3 1 5 -13 5 -14 0 -19 -2 -12 -5z"/>
<path d="M6800 4819 c0 -5 7 -9 16 -9 8 0 12 -4 9 -10 -11 -17 -15 -80 -6 -80
13 0 21 28 19 67 -1 22 -7 33 -19 36 -11 3 -19 1 -19 -4z"/>
<path d="M6390 4814 c0 -10 95 -48 138 -54 35 -6 42 -4 40 8 -2 8 -21 20 -44
27 -49 14 -134 27 -134 19z"/>
<path d="M6850 4810 c0 -5 5 -10 10 -10 6 0 10 5 10 10 0 6 -4 10 -10 10 -5 0
-10 -4 -10 -10z"/>
<path d="M6892 4808 c3 -7 15 -15 29 -17 23 -3 39 -17 39 -33 0 -14 -40 -8
-46 6 -3 8 -15 11 -30 8 -26 -5 -27 -8 -13 -62 3 -11 -3 -14 -21 -13 l-25 3
25 -11 c14 -6 35 -16 46 -21 22 -10 64 4 64 21 0 5 9 7 20 4 11 -3 20 -11 20
-18 0 -8 -9 -17 -20 -20 -30 -10 -24 -18 28 -39 111 -45 170 -78 207 -116 21
-22 43 -40 47 -40 4 0 8 14 8 30 0 17 8 38 18 48 22 22 17 62 -9 62 -22 0 -26
18 -4 26 13 5 13 9 0 34 -8 16 -30 40 -47 54 -38 28 -150 86 -167 86 -19 0
-12 -39 9 -52 23 -15 27 -40 5 -32 -11 5 -15 -1 -15 -19 0 -14 -4 -28 -9 -31
-11 -7 -21 17 -21 49 0 35 -20 41 -41 14 l-19 -24 4 34 c2 19 11 38 22 44 15
9 11 12 -27 23 -56 17 -82 18 -77 2z"/>
<path d="M7472 4808 c-8 -8 -8 -16 0 -32 6 -12 11 -22 10 -23 -3 -4 7 -3 23 3
8 3 12 10 9 15 -3 5 0 9 7 9 7 0 5 8 -6 20 -21 23 -27 24 -43 8z"/>
<path d="M8190 4795 c0 -22 38 -85 51 -85 5 0 28 -18 50 -40 40 -39 75 -56 48
-23 -10 11 -10 14 -1 9 26 -15 32 6 12 45 -23 44 -23 44 15 25 16 -8 22 -17
16 -21 -19 -11 -1 -26 19 -15 24 13 40 13 20 0 -8 -5 -11 -12 -7 -16 3 -4 14
-1 23 7 12 10 11 3 -5 -24 -31 -55 -28 -66 17 -61 20 3 44 5 52 6 8 1 18 6 22
12 5 8 8 7 8 -1 0 -7 5 -13 12 -13 6 0 5 7 -5 18 -15 16 -15 21 -3 37 13 17
10 21 -33 41 -25 12 -59 36 -75 53 -32 34 -56 40 -56 15 0 -9 5 -12 13 -8 7 5
6 1 -3 -10 -14 -17 -15 -17 -24 5 -14 34 -12 33 -74 40 -31 3 -65 9 -74 14
-13 5 -18 3 -18 -10z m255 -75 c3 -5 -1 -10 -10 -10 -9 0 -13 5 -10 10 3 6 8
10 10 10 2 0 7 -4 10 -10z m75 -69 c0 -6 -4 -13 -10 -16 -5 -3 -10 1 -10 9 0
9 5 16 10 16 6 0 10 -4 10 -9z"/>
<path d="M15518 4788 c-21 -6 -38 -15 -38 -21 0 -6 -7 -19 -17 -29 -15 -17
-15 -19 2 -38 18 -20 75 -28 75 -10 0 5 23 19 50 31 51 22 71 43 63 67 -6 14
-80 15 -135 0z"/>
<path d="M8768 4764 c-38 -20 -36 -28 2 -9 17 9 30 18 30 20 0 7 -1 6 -32 -11z"/>
<path d="M6790 4743 c0 -21 3 -24 9 -14 5 8 7 20 4 28 -8 21 -13 15 -13 -14z"/>
<path d="M8816 4705 c-11 -8 -15 -15 -9 -15 6 0 16 7 23 15 16 19 11 19 -14 0z"/>
<path d="M7377 4680 c17 -20 53 -28 53 -12 0 15 -24 32 -47 32 -22 0 -22 -1
-6 -20z"/>
<path d="M7850 4691 c0 -6 5 -13 10 -16 6 -3 10 1 10 9 0 9 -4 16 -10 16 -5 0
-10 -4 -10 -9z"/>
<path d="M8200 4675 c7 -8 10 -26 8 -40 -3 -13 0 -26 6 -28 7 -2 6 -10 -4 -22
-9 -11 -10 -16 -2 -11 7 4 15 1 18 -8 4 -11 19 -16 43 -16 30 0 40 5 54 29 17
28 16 29 -11 46 -15 10 -31 24 -35 32 -4 7 -15 13 -22 13 -8 0 -15 5 -15 10 0
6 -12 10 -26 10 -22 0 -25 -2 -14 -15z"/>
<path d="M8770 4670 c-8 -5 -12 -12 -9 -15 8 -8 39 5 39 16 0 11 -11 11 -30
-1z"/>
<path d="M7580 4665 c0 -5 12 -34 27 -63 21 -41 31 -52 45 -48 14 3 17 0 13
-13 -3 -10 2 -24 12 -33 30 -25 39 -27 39 -9 0 10 -7 18 -16 17 -9 -1 -16 9
-18 26 -2 17 -17 39 -40 58 -20 16 -42 40 -49 52 -7 13 -12 19 -13 13z"/>
<path d="M8726 4657 c-16 -12 -16 -13 3 -14 12 -1 21 4 21 13 0 17 -2 17 -24
1z"/>
<path d="M8790 4641 c0 -5 5 -13 10 -16 6 -3 10 -2 10 4 0 5 -4 13 -10 16 -5
3 -10 2 -10 -4z"/>
<path d="M7398 4616 c-48 -27 -68 -55 -65 -92 2 -25 -1 -29 -24 -29 -36 1 -27
-21 19 -42 20 -10 44 -25 54 -35 23 -23 126 -25 168 -3 33 17 40 49 13 64 -14
7 -15 12 -5 24 10 12 8 20 -13 45 -14 17 -36 34 -48 37 -12 4 -31 17 -42 30
l-20 23 -37 -22z m122 -122 c0 -16 -16 -19 -25 -4 -8 13 4 32 16 25 5 -4 9
-13 9 -21z"/>
<path d="M8740 4615 c-24 -26 -24 -27 -3 -21 27 9 37 -7 21 -33 -13 -21 -6
-37 11 -26 12 7 13 46 2 83 l-6 24 -25 -27z"/>
<path d="M8042 4596 c-9 -20 -10 -32 -3 -39 16 -16 23 -3 19 34 l-3 34 -13
-29z"/>
<path d="M15313 4613 c-19 -7 -16 -21 7 -28 11 -4 19 -9 16 -13 -2 -4 0 -17 5
-29 10 -26 59 -32 78 -9 17 21 -14 76 -44 76 -13 0 -29 2 -37 4 -7 3 -19 2
-25 -1z"/>
<path d="M8332 4570 c-7 -11 -9 -20 -4 -20 4 0 13 9 20 20 7 11 9 20 4 20 -4
0 -13 -9 -20 -20z"/>
<path d="M8177 4573 c-10 -9 -9 -23 1 -23 5 0 9 7 9 15 0 17 -1 18 -10 8z"/>
<path d="M6930 4552 c0 -10 20 -30 33 -31 4 -1 14 -1 21 -1 8 0 26 -10 39 -22
70 -64 75 -67 93 -54 15 12 15 15 -11 38 -15 14 -55 34 -89 43 -33 10 -67 23
-73 28 -8 6 -13 6 -13 -1z"/>
<path d="M8680 4543 c0 -5 7 -17 15 -27 11 -14 18 -17 26 -9 7 7 2 15 -15 27
-15 9 -26 13 -26 9z"/>
<path d="M8818 4506 c-12 -9 -14 -16 -7 -29 13 -22 39 -22 39 1 0 30 -13 42
-32 28z"/>
<path d="M8045 4492 c-17 -8 -37 -23 -45 -32 -8 -9 -26 -24 -40 -33 -13 -9
-19 -17 -11 -17 17 0 81 31 81 39 0 13 48 10 53 -3 4 -9 -7 -21 -31 -32 -32
-15 -34 -18 -17 -25 19 -7 19 -8 -1 -8 -12 -1 -25 -8 -28 -17 -11 -29 0 -26
44 11 47 39 58 42 67 20 5 -14 8 -14 30 1 19 12 27 13 33 4 9 -15 88 -4 111
16 8 8 31 15 49 17 45 5 49 21 8 34 -31 10 -31 11 -8 13 16 2 8 5 -20 9 -53 8
-65 4 -50 -14 18 -22 8 -60 -15 -61 -11 0 -28 -4 -38 -8 -19 -9 -47 8 -47 30
0 17 43 19 72 3 11 -6 22 -8 25 -5 9 9 -19 66 -32 66 -8 0 -20 3 -28 6 -8 3
-17 -1 -20 -9 -3 -9 1 -14 10 -13 9 0 18 -4 20 -10 2 -6 -11 -10 -32 -10 -19
1 -35 4 -35 9 0 4 -8 7 -18 7 -10 0 -27 6 -37 14 -18 12 -25 12 -50 -2z m92
-48 c-3 -3 -12 -4 -19 -1 -8 3 -5 6 6 6 11 1 17 -2 13 -5z"/>
<path d="M8415 4480 c4 -6 11 -8 16 -5 14 9 11 15 -7 15 -8 0 -12 -5 -9 -10z"/>
<path d="M8760 4481 c0 -5 -2 -16 -5 -23 -4 -9 7 -20 29 -31 47 -22 57 -4 20
34 -28 29 -44 37 -44 20z"/>
<path d="M15418 4416 c-15 -11 -15 -13 0 -22 20 -13 42 -7 42 11 0 19 -23 25
-42 11z"/>
<path d="M8075 4380 c-3 -5 3 -10 15 -10 12 0 18 5 15 10 -3 6 -10 10 -15 10
-5 0 -12 -4 -15 -10z"/>
<path d="M7655 4370 c-103 -9 -199 -36 -274 -77 -55 -30 -61 -42 -33 -65 19
-16 82 -41 82 -31 0 3 7 0 15 -7 8 -7 21 -10 30 -7 8 4 17 2 20 -3 8 -13 90
-12 140 1 22 6 52 12 66 14 15 1 43 9 63 16 30 11 36 18 36 41 0 15 4 28 9 28
8 0 6 22 -5 59 -3 11 -7 11 -20 1 -12 -11 -17 -11 -27 0 -9 10 -9 13 1 17 6 3
12 9 12 14 0 5 -6 8 -12 8 -7 -1 -54 -5 -103 -9z m-30 -40 c4 -6 1 -17 -5 -25
-12 -15 -10 -20 35 -81 17 -24 -2 -25 -27 -2 -25 23 -45 89 -33 108 8 13 22
13 30 0z m-135 -71 c0 -5 -7 -9 -15 -9 -8 0 -15 7 -15 15 0 9 6 12 15 9 8 -4
15 -10 15 -15z m-98 -17 c-19 -6 -44 6 -37 18 4 7 14 6 28 -2 14 -7 17 -13 9
-16z"/>
<path d="M8231 4244 c0 -11 3 -14 6 -6 3 7 2 16 -1 19 -3 4 -6 -2 -5 -13z"/>
<path d="M15515 4210 c-4 -6 5 -10 19 -10 14 0 26 5 26 10 0 6 -9 10 -19 10
-11 0 -23 -4 -26 -10z"/>
<path d="M7020 4180 c0 -5 5 -10 11 -10 5 0 7 5 4 10 -3 6 -8 10 -11 10 -2 0
-4 -4 -4 -10z"/>
<path d="M7058 4163 c7 -3 16 -2 19 1 4 3 -2 6 -13 5 -11 0 -14 -3 -6 -6z"/>
<path d="M7640 4148 c-19 -5 -47 -12 -61 -15 -15 -3 -31 -15 -38 -29 -12 -26
-41 -33 -41 -9 0 8 7 15 15 15 8 0 15 4 15 10 0 18 -63 3 -82 -20 -20 -24 -24
-50 -8 -50 6 0 10 -8 10 -17 1 -12 6 -8 17 12 16 30 16 30 26 7 6 -12 14 -22
19 -22 16 0 8 -17 -14 -28 -23 -11 -23 -11 -2 -11 13 -1 29 10 40 26 10 16 19
23 22 15 3 -9 8 -8 19 3 16 17 33 11 33 -11 0 -19 19 -18 26 1 4 9 19 15 38
15 17 0 46 4 64 9 20 6 30 6 27 0 -4 -5 -1 -9 4 -9 6 0 11 5 11 11 0 5 4 8 10
4 13 -8 50 31 50 54 0 46 -8 51 -89 50 -42 -1 -92 -5 -111 -11z m146 -45 c-3
-21 -31 -29 -41 -12 -4 6 -1 15 6 20 22 14 37 10 35 -8z"/>
<path d="M7223 4048 c-8 -19 -6 -25 15 -36 23 -12 28 -10 51 14 l26 27 -25 -6
c-15 -4 -31 0 -41 8 -14 14 -17 13 -26 -7z"/>
<path d="M7095 4034 c-22 -23 -18 -31 13 -29 39 3 40 3 51 23 7 14 4 17 -20
19 -16 1 -35 -5 -44 -13z"/>
<path d="M8290 4036 c0 -8 5 -18 10 -21 6 -3 10 1 10 9 0 8 -4 18 -10 21 -5 3
-10 -1 -10 -9z"/>
<path d="M7030 4010 c0 -5 5 -10 11 -10 5 0 7 5 4 10 -3 6 -8 10 -11 10 -2 0
-4 -4 -4 -10z"/>
<path d="M7499 3894 c-7 -8 -9 -32 -5 -61 13 -106 15 -98 -24 -99 -43 -1 -76
-17 -91 -45 -9 -19 -8 -20 10 -14 18 5 21 2 21 -20 0 -20 -6 -27 -30 -31 -29
-6 -38 -18 -22 -28 4 -2 14 -1 22 4 39 24 46 -29 6 -55 -13 -9 -23 -27 -24
-43 -3 -43 27 -36 92 21 42 36 66 69 96 131 45 90 73 217 53 237 -17 17 -91
19 -104 3z m44 -209 c7 -16 -8 -29 -23 -20 -10 6 -2 35 10 35 4 0 10 -7 13
-15z"/>
<path d="M7446 3854 c-8 -21 -1 -28 18 -21 9 4 13 13 10 22 -8 20 -20 19 -28
-1z"/>
<path d="M7393 3783 c-25 -3 -33 -9 -33 -24 0 -23 3 -23 41 -3 17 8 38 13 46
10 9 -4 13 -1 11 6 -5 15 -19 17 -65 11z"/>
<path d="M7524 3498 c-64 -87 -70 -103 -77 -186 -5 -62 -4 -72 8 -62 8 6 19
28 26 48 17 54 43 99 73 128 22 22 25 33 20 64 -4 23 -2 40 5 44 14 9 14 26 1
26 -6 0 -31 -28 -56 -62z"/>
<path d="M7300 2988 c-22 -36 -18 -67 14 -110 25 -35 34 -35 42 -3 7 30 -2 59
-16 50 -14 -9 -1 26 19 48 14 17 14 20 -4 33 -27 20 -33 18 -55 -18z"/>
<path d="M15210 1402 c0 -12 19 -26 26 -19 2 2 -2 10 -11 17 -9 8 -15 8 -15 2z"/>
<path d="M4180 1140 c0 -5 9 -10 20 -10 11 0 28 -4 38 -9 36 -18 109 -51 114
-51 3 0 13 11 22 25 15 23 15 25 -10 41 -24 16 -27 16 -55 0 -26 -16 -31 -16
-51 -2 -25 18 -78 22 -78 6z"/>
<path d="M4244 741 c-27 -12 -52 -51 -54 -87 -3 -45 -2 -47 24 -31 13 9 43 17
67 19 l44 3 0 50 c0 48 -1 50 -30 52 -16 1 -39 -2 -51 -6z"/>
</g>
</svg>
